<svg fill="none" height="29" viewBox="0 0 65 29" width="65" xmlns="http://www.w3.org/2000/svg"><path clip-rule="evenodd" d="m63.5852 20.1092-.067.3853-1.1681-.1542.0217-.6272zm.475-.3374-2.9264-.9553.4009 1.8919 2.2982.3035c-.1719.8064-.3885 1.6746-.5496 2.3184-.0496.1991-.0952.3811-.1341.5393-.6195-.0021-2.0163-.0073-3.9872-.015.0359-.2248.0578-.4544.0578-.6902 0-2.1695-1.584-3.9283-3.5382-3.9283-1.9539 0-3.5382 1.7588-3.5382 3.9283 0 .2259.0211.446.054.6615-4.7064-.0194-10.4376-.0432-16.3075-.0675-2.9502-.0123-5.9205-.0247-8.7897-.0367.0235-.1826.0396-.3675.0396-.5573 0-2.1695-1.5841-3.9283-3.5382-3.9283-1.9539 0-3.5382 1.7588-3.5382 3.9283 0 .1795.0147.3551.0357.5283-8.1013-.0333-14.24008-.0582-14.79059-.0582-1.54642 0-3.45523-.6208-4.457314-1.0307v-20.41294c5.221694.02197 56.129404.23412 57.530904.23412 1.021 0 1.8173.50085 2.5023 1.59445-.3141-.06426-.6223-.03378-.8621.15215-.2445.1897-.4903.59346-.2724 1.4397.3939 1.53062 1.2092 7.85012 1.2173 7.91362.0942.732.979 1.0211 1.8347 1.3009.2673.0874.5212.1712.7367.262.3397 2.0407.5742 3.68.5742 4.0698 0 .1642-.0192.3745-.0526.6142zm-8.3786 5.1307c-.8646 0-1.5655-.7782-1.5655-1.7381 0-.9601.7009-1.7383 1.5655-1.7383.8648 0 1.5658.7782 1.5658 1.7383 0 .9599-.701 1.7381-1.5658 1.7381zm-29.6158-2.9023c-.0276.0134-.0564.0196-.0847.0196-.0823 0-.1604-.0532-.1953-.1422-.3052-.7794-1.0268-1.3039-1.7952-1.3049-.1177 0-.2128-.1057-.2126-.2365.0002-.1301.0954-.236.2128-.236.9353.0013 1.8135.6396 2.1853 1.5891.047.1198-.0026.259-.1103.3109zm-2.4642 2.9023c-.8646 0-1.5656-.7782-1.5656-1.7381 0-.9601.701-1.7383 1.5656-1.7383.8648 0 1.5658.7782 1.5658 1.7383 0 .9599-.701 1.7381-1.5658 1.7381zm-16.895-24.171672c0-.01228.00894-.02221.01979-.02221h2.94575c.33496 0 .61886.2424.71886.576932-1.33146-.00544-2.56847-.01064-3.6844-.01536zm32.7403 0c0-.01228.0089-.02221.0198-.02221h2.946c.3394 0 .6273.24877.7237.590632h-3.6697c-.0109 0-.0198-.00969-.0198-.02174zm22.207 5.326262c.2219.85381.5322 2.04851.8356 3.29761.3182 1.5717.641 3.3351.9142 4.9335-.1387-.0486-.2805-.096-.4213-.1422-.5037-.1647-1.3471-.4403-1.383-.721-.0083-.0642-.8297-6.4317-1.2358-8.00839-.0866-.33689-.0774-.58495.0245-.6641.0473-.03661.12-.05528.2096-.05528.206 0 .5016.09828.7844.30098.0543.22302.1494.58779.2718 1.05888z" fill="#fff" fill-rule="evenodd"/><g fill="#192224"><g clip-rule="evenodd" fill-rule="evenodd"><path d="m61.661 4.78057c-.7785-.62842-1.9816-.73332-1.6041.73332.3773 1.4666 1.1321 7.22781 1.2266 7.96101.0652.5062.85.7628 1.609 1.0111.3404.1113.6755.2209.9384.3506 0-1.6816-1.2615-6.53571-1.869-8.87317-.1493-.57442-.2591-.99685-.3009-1.18286zm-3.1594.44735c.3673 1.56587 1.0368 5.57408 1.3241 7.32708.0717.437-.2335.8377-.6338.8332l-7.8451-.0888c-.3496-.004-.6309-.3196-.6309-.7078v-7.18153c0-.39076.2854-.70757.6373-.70757h6.5326c.2887 0 .543.21522.6158.52542zm-18.2565 8.03808h-8.7778c-.2792 0-.5056-.2514-.5056-.5613v-7.44076c0-.30996.2264-.56133.5056-.56133h8.7778c.2792 0 .5054.25137.5054.56133v7.44076c0 .3099-.2262.5613-.5054.5613zm-22.048 0h8.7922c.2792 0 .5054-.2514.5054-.5613v-7.38571c0-.30996-.2262-.56133-.5054-.56133h-8.7922c-.2794 0-.5056.25137-.5056.56133v7.38571c0 .3099.2262.5613.5056.5613zm-4.2634-5.76171h-7.12731c-.2794 0-.50561-.2512-.50561-.5611v-1.12269c0-.30996.22621-.56133.50561-.56133h7.12731c.2792 0 .5056.25137.5056.56133v1.12269c0 .3099-.2264.5611-.5056.5611zm-7.12731 4.94941h7.12731c.2792 0 .5056-.2511.5056-.5613v-1.1224c0-.3099-.2264-.5613-.5056-.5613h-7.12731c-.2794 0-.50561.2514-.50561.5613v1.1224c0 .3102.22621.5613.50561.5613z" opacity=".1"/><path d="m32.309 28.7434c17.3358 0 31.3893-.5647 31.3893-1.2612 0-.6964-14.0535-1.2607-31.3893-1.2607-17.336 0-31.389444.5643-31.389444 1.2607 0 .6965 14.053444 1.2612 31.389444 1.2612z" opacity=".3"/><path d="m59.0322 13.741.1562.0018h.01c.2829 0 .5491-.1372.7317-.3775.1842-.2427.2606-.5613.2093-.8737-.2753-1.6815-.9565-5.76367-1.3291-7.35272-.1094-.46518-.4897-.79049-.9248-.79049h-6.5324c-.5273 0-.9565.47627-.9565 1.06194v7.18147c0 .5798.4248 1.0561.9465 1.0619l6.2712.0712c.0317.3557.1303.6149.247.6149h.7624c.1615-.0003.3069-.2308.4085-.5988zm-7.6791-8.68386c-.1753 0-.3181.15852-.3181.35319v7.18147c0 .1928.1411.3513.3147.3532l3.2927.0373v-7.92516zm8.1584 7.56136c-.2743-1.6735-.9519-5.73537-1.3187-7.30102-.0362-.15332-.1626-.26034-.3073-.26034h-2.6047v7.93246l2.3228.0264v-1.5375c0-.4759.1153-.862.2577-.862h.7624c.3073.0005.5563.8345.5561 1.8626-.0001.1932-.0089.3794-.0252.5545l.0407.0005c.0906-.0013.1855-.0447.2468-.1257.036-.0472.0926-.1479.0694-.2899z"/><path d="m41.0697 12.7047c0 .5049-.3699.9157-.8248.9157h-8.7776c-.455 0-.8248-.4108-.8248-.9157v-7.44066c0-.50487.3698-.91547.8248-.91547h8.7776c.4549 0 .8248.4106.8248.91547zm-9.6024-7.64738c-.1028 0-.1864.09261-.1864.20672v7.44066c0 .1142.0836.207.1864.207h8.7776c.1028 0 .1864-.0928.1864-.207v-7.44066c0-.11411-.0836-.20672-.1864-.20672z"/><path d="m26.9891 13.6204c.4549 0 .8248-.4108.8248-.9157v-7.38537c0-.50487-.3699-.9157-.8248-.9157h-8.7923c-.4548 0-.8246.41083-.8246.9157v7.38537c0 .5049.3698.9157.8246.9157zm-8.9785-8.30107c0-.11411.0836-.20695.1862-.20695h8.7923c.103 0 .1864.09284.1864.20695v7.38537c0 .1141-.0834.207-.1864.207h-8.7923c-.1026 0-.1862-.0929-.1862-.207z"/><path d="m14.7583 6.94299c0 .5051-.3698.9157-.8248.9157h-7.12711c-.45497 0-.82482-.4106-.82482-.9157v-1.12238c0-.50487.36985-.9157.82482-.9157h7.12711c.455 0 .8248.41083.8248.9157zm-7.95191-1.32933c-.10279 0-.18642.09284-.18642.20695v1.12238c0 .1142.08363.207.18642.207h7.12711c.103 0 .1864-.0928.1864-.207v-1.12238c0-.11411-.0834-.20695-.1864-.20695z"/><path d="m13.9335 12.8082c.455 0 .8248-.4109.8248-.9157v-1.1224c0-.5049-.3698-.91573-.8248-.91573h-7.12711c-.45497 0-.82482.41083-.82482.91573v1.1224c0 .5048.36985.9157.82482.9157zm-7.31353-2.0381c0-.1142.08363-.207.18642-.207h7.12711c.103 0 .1864.0928.1864.207v1.1224c0 .1141-.0834.2069-.1864.2069h-7.12711c-.10279 0-.18642-.0928-.18642-.2069z"/><path d="m2.667 19.6049-1.23829.1179v-5.9709l1.23829.5498zm-.28324-1.5994-.0232-2.1735s-.57902.4495-.6484.4495l.0232 2.2111z"/></g><path d="m48.098 15.5048c0-.1304-.0951-.2362-.2128-.2362h-1.3166c-.1177 0-.2128.1058-.2128.2362s.0951.2363.2128.2363h1.3166c.1177 0 .2128-.1059.2128-.2363z"/><path clip-rule="evenodd" d="m59.8448 14.4375c-.0098-.1301.077-.2443.1943-.2551.1196-.0129.2198.0859.2296.2159.0713.9488.3909 6.5544.0923 8.5432-.0172.1153-.1074.1973-.2096.1973-.0022 0-.0044-.0001-.0067-.0001l-.004-.0002-.0065-.0005-.0056-.0005c-.0041-.0006-.0082-.0011-.0123-.002-.116-.0213-.1945-.1429-.1751-.2717.1336-.8894.1396-2.5867.0974-4.261h-11.0894v1.8749c0 .5798-.425 1.0515-.9472 1.0515h-3.532c-.5222 0-.9472-.4717-.9472-1.0515v-1.8749h-39.98444c-.11768 0-.2128-.1058-.2128-.2362 0-.1305.09512-.2363.2128-.2363h39.98444v-9.38098c0-.5797.425-1.05151.9472-1.05151h3.532c.5222 0 .9472.47181.9472 1.05151v9.38098h11.0765c-.0466-1.5349-.1277-2.9838-.1809-3.6928zm-11.8428 6.3829c.1703 0 .3088-.1537.3088-.3427v-11.72838c0-.189-.1385-.3428-.3088-.3428h-3.532c-.1703 0-.3088.1538-.3088.3428v11.72838c0 .189.1385.3427.3088.3427z" fill-rule="evenodd"/><path d="m43.7584 22.0646c-.1504 0-.2562.1003-.2066.1965l.6026 1.1706c.0305.0595.1137.0994.2067.0994h3.6691c.0966 0 .1815-.0427.2094-.1048l.5273-1.1709c.043-.095-.0624-.1908-.2094-.1908z"/><path clip-rule="evenodd" d="m62.1595 4.56955c-.9493-2.10782-2.1497-3.08944-3.7774-3.08944-.4705 0-6.5353-.0241-14.5785-.0567-.0586-.79569-.6595-1.42341-1.3909-1.42341h-2.946c-.3628 0-.6582.32792-.6582.73096v.54668c0 .04277.0051.08435.0115.12545-9.2881-.03803-20.0198-.08245-27.7725-.11481-.1128-.73002-.6857-1.28828-1.37536-1.28828h-2.94574c-.36283 0-.65819.32792-.65819.73096v.53676l-1.59594-.00666c-2.45781-.01027-3.95496-.01652-4.04496-.01673l-.42731-.00165v22.00592l.26749.1189c1.01421.4503 3.2169 1.2122 5.04102 1.2122.55456 0 6.80249.0252 15.01489.0591.5254 1.4382 1.7941 2.4538 3.2782 2.4538 1.4749 0 2.7381-1.0026 3.2695-2.4267l25.5845.1063c.5539 1.367 1.7886 2.3204 3.226 2.3204 1.4283 0 2.6558-.9414 3.2148-2.2942 2.6549.0107 4.3354.017 4.5805.017h.3324l.0807-.3578c.0448-.2005.1194-.4983.2084-.8537l.0052-.0207c.3426-1.3705.8604-3.4416.8604-4.4254 0-1.3419-1.9246-12.6345-2.8045-14.58825zm1.4257 15.53975-.067.3854-1.1681-.1543.0217-.6272zm.475-.3373-2.9264-.9554.4009 1.8919 2.2982.3036c-.1719.8063-.3885 1.6745-.5496 2.3183l-.0391.1568c-.0345.1385-.0665.2669-.095.3825-.6195-.0021-2.0163-.0073-3.9872-.015.0359-.2247.0579-.4544.0579-.6901 0-2.1696-1.5841-3.9284-3.5383-3.9284-1.9539 0-3.5382 1.7588-3.5382 3.9284 0 .2258.0211.4459.0541.6615-3.2618-.0135-7.0157-.029-10.9669-.0455l-14.1304-.0587c.0235-.1827.0396-.3676.0396-.5573 0-2.1696-1.584-3.9284-3.5382-3.9284-1.9539 0-3.5382 1.7588-3.5382 3.9284 0 .1795.0147.355.0357.5282-8.1013-.0333-14.24007-.0581-14.79059-.0581-1.54642 0-3.45523-.6209-4.45731-1.0308v-20.41291c5.22169.02197 56.1294.23412 57.5309.23412 1.021 0 1.8173.50085 2.5023 1.59445-.3141-.06426-.6223-.03378-.8621.15215-.2445.18971-.4903.59346-.2724 1.4397.3939 1.53069 1.2092 7.85019 1.2173 7.91359.0942.7318.9788 1.0211 1.8344 1.3008.2673.0874.5215.1714.737.2621.3397 2.0407.5742 3.6801.5742 4.0699 0 .1641-.0192.3744-.0526.6142zm-8.3786 5.1306c-.8646 0-1.5655-.7782-1.5655-1.738 0-.9602.7009-1.7384 1.5655-1.7384.8648 0 1.5658.7782 1.5658 1.7384 0 .9598-.701 1.738-1.5658 1.738zm-29.6158-2.9023c-.0276.0135-.0564.0196-.0847.0196-.0823 0-.1604-.0531-.1953-.1422-.3052-.7794-1.0268-1.3039-1.7952-1.3048-.1177 0-.2128-.1058-.2126-.2364.0002-.1303.0954-.2361.2128-.2361.9353.0012 1.8135.6395 2.1853 1.589.047.1198-.0026.259-.1103.3109zm-2.4642 2.9023c-.8646 0-1.5656-.7782-1.5656-1.738 0-.9602.701-1.7384 1.5656-1.7384.8648 0 1.5658.7782 1.5658 1.7384 0 .9598-.701 1.738-1.5658 1.738zm-16.89499-24.17164c0-.01228.00894-.02221.01979-.02221h2.94574c.33496 0 .61886.2424.71886.57693-1.33146-.00544-2.56847-.01063-3.68439-.01536zm32.74029 0c0-.01228.0089-.02221.0198-.02221h2.946c.3394 0 .6273.24878.7237.59063h-3.6697c-.0109 0-.0198-.00969-.0198-.02174zm22.207 5.32626c.2219.85378.5322 2.04858.8356 3.29758.3182 1.5718.641 3.3351.9142 4.9337-.1387-.0488-.2805-.0962-.4213-.1424-.5037-.1645-1.3471-.4403-1.383-.721-.0139-.1073-.8311-6.4371-1.2357-8.00835-.0867-.3369-.0775-.58496.0244-.6641.0473-.03662.12-.05529.2096-.05529.206 0 .5016.09828.7844.30099.0495.2035.1331.52502.2403.93765z" fill-rule="evenodd"/></g></svg>