<svg fill="none" height="26" viewBox="0 0 53 26" width="53" xmlns="http://www.w3.org/2000/svg"><path clip-rule="evenodd" d="m51.086 18.7689c-.0165.5493-.3988 1.026-.9299 1.1593-.9587.2409-2.3084.5133-3.4154.4999.0139-.134.0212-.2698.0212-.4076 0-2.1695-1.7586-3.9281-3.9281-3.9281-2.1693 0-3.9281 1.7586-3.9281 3.9281 0 .1226.0075.2434.0184.3629-5.5675-.0194-14.6463-.0517-22.551-.1415.0042-.0737.0111-.1465.0111-.2214 0-2.1695-1.7584-3.9281-3.9281-3.9281-2.1693 0-3.92823 1.7586-3.92823 3.9281 0 .034.0045.0671.0052.1009-3.7497-.0791-6.5342-.1829-7.4338-.3196l-.0336-.1834.8883-.3699-.3111-17.08541c3.8743.01064 29.67943.0834 30.73643.15333.7104.13466 4.9345 3.47408 7.4586 5.46918 2.3342 1.8451 3.6751 2.8986 4.0994 3.0944.4321.1994 1.2658.4293 2.2309.6955 1.2791.353 3.0306.8364 3.4816 1.2051.6044.4947.9266 2.4781.9266 3.7196v.1748l.1134.1325c.0872.1016.1649.2039.2311.3038.1344.2037.2015.4477.1939.7055zm-8.2522 2.99c-.9599 0-1.7381-.7783-1.7381-1.7384 0-.9599.7782-1.7383 1.7381-1.7383.9601 0 1.7383.7784 1.7383 1.7383 0 .9601-.7782 1.7384-1.7383 1.7384zm-27.6422-2.9024c-.0305.0133-.0624.0196-.0938.0196-.0914 0-.1784-.0531-.2169-.1422-.3388-.7796-1.1394-1.3039-1.993-1.3048-.1304 0-.2362-.1061-.236-.2365s.1061-.236.2363-.236c1.0385.0009 2.0138.6398 2.426 1.589.0522.1198-.0028.2589-.1226.3109zm-2.7355 2.9024c-.9599 0-1.7381-.7783-1.7381-1.7384 0-.9599.7782-1.7383 1.7381-1.7383.9601 0 1.7383.7784 1.7383 1.7383 0 .9601-.7782 1.7384-1.7383 1.7384zm-4.14413-21.02819c0-.01205.0099-.02197.022-.02197h3.27063c.3584 0 .6629.22609.7841.54243-1.4302-.00496-2.80643-.00945-4.07673-.01347z" fill="#fff" fill-rule="evenodd"/><g fill="#192224"><path clip-rule="evenodd" d="m7.91226 11.5412 20.31284.047c.31 0 .5613-.2471.5613-.5519l-.055-4.67108c0-.3048-.2514-.5521-.5614-.5521l-22.85054-.1432c-.31 0-.5614.2471-.5614.5519l.0901 3.6971c0 .30468 2.7539 1.62228 3.0641 1.62228zm24.06634-5.66178 4.6612.6808 6.5994 5.34238-6.6516.1571-4.0331-1.4667z" fill-rule="evenodd" opacity=".1"/><path clip-rule="evenodd" d="m51.8386 23.8661c0 .6965-11.4326 1.2611-25.5356 1.2611-14.1029 0-25.535544-.5646-25.535544-1.2611s11.432644-1.2609 25.535544-1.2609c14.103 0 25.5356.5644 25.5356 1.2609z" fill-rule="evenodd" opacity=".3"/><path d="m4.50915 4.19265c-.1306 0-.2362-.10584-.2362-.23625s.1056-.23625.2362-.23625h25.55745c.0943 0 .1742.05599.2121.13584.0399.02812.074.06544.0906.11553.3938 1.18177 1.3752 10.04658.4807 13.29848-.0288.1049-.1238.1737-.2275.1737-.0208 0-.042-.0026-.0628-.0085-.1259-.0345-.1996-.1647-.1652-.2904.8371-3.0443-.0642-11.58331-.4526-12.95215z"/><path d="m29.1408 11.0321c0 .5039-.4106.9105-.9157.9105l-20.31389-.0472c-.2013 0-3.4174-1.2592-3.4174-1.97649l-.09-3.6886c0-.5081.4106-.915.9157-.915l22.85269.1434c.5025 0 .9134.4066.9134.9063zm-24.02819-4.81029.0874 3.5906c.3841.34939 2.3757 1.30599 2.7289 1.37419l20.29619.0473c.1142 0 .207-.0886.207-.1975l-.0553-4.66709c0-.1132-.0928-.2018-.2067-.2018l-22.85289-.1434c-.112 0-.2046.0886-.2046.1977z"/><path d="m27.8285 12.493c-.1306 0-.2362.1059-.2362.2363s.1056.2362.2362.2362h1.6682c.1304 0 .2362-.1058.2362-.2362s-.1058-.2363-.2362-.2363z"/><path d="m33.4772 12.9655c.1306 0 .2362-.1058.2362-.2362s-.1056-.2363-.2362-.2363h-1.6682c-.1304 0-.2362.1059-.2362.2363s.1058.2362.2362.2362z"/><path d="m39.358 8.00312c-.8181-.6695-2.6443-2.0053-3.6999-2.2691-.9282-.2323-2.7429-.271-3.7888-.2724-.0484-.0145-.1001-.0197-.1535-.0111-.1935.029-.3268.2097-.2975.4032l.4437 2.9314c.1491 1.23468.9656 2.27038 2.131 2.70368l2.2219.8261c.1564.0584.3206.0879.4876.0879h2.3198c.0635.2384.2058.4049.3714.4049h1.2065c.2341-.0002.4463-.1547.6039-.4049h1.9098c.0529 0 .1028-.0123.1477-.0331.051.0265.1049.0442.1608.0442.0908 0 .1812-.0345.2505-.1037.1384-.1384.1384-.3629 0-.5011-.5642-.5644-3.424-3.07688-4.3149-3.80598zm2.0941 3.69098c.0175-.116.0277-.2368.0279-.362 0-.2272-.0317-.4415-.086-.6338.4087.3612.7988.709 1.1156.9958zm-2.0584-1.83878c-.2249 0-.4076.30598-.4076.68348v1.1553h-2.2836c-.0822 0-.1632-.0147-.2405-.0433l-2.2221-.8261c-.9155-.3407-1.5571-1.15458-1.6755-2.13478l-.3808-2.5182c.9339.0085 2.517.0532 3.3025.2497.8602.215 2.556 1.4208 3.4228 2.1303.3125.2554.8899.7508 1.5243 1.3036z"/><path d="m45.2229 11.6873c1.5716.2859 3.0042.6776 3.832 1.0485.4598.2058.7808.6244.859 1.1193l.1826 1.157-.3033-.0289c-.0163-.0016-1.6596-.1578-2.744-.2353l-.203-.0144-.0158-.2032c-.0724-.946-1.3718-2.0609-1.8015-2.4296l-.0018-.0016-.6624-.5677zm2.0533.9434.7106 1.7168c.5999.0501 1.2002.1046 1.5482.137l-.0877-.5556c-.0531-.3367-.2721-.6214-.5859-.762-.3973-.1781-.9454-.3619-1.5852-.5362z"/><path d="m3.56557 11.1581-1.3749-.55v5.9707l1.3749-.1179zm-1.0345 4.1906-.0258-2.2109c.0771 0 .7199-.4498.7199-.4498l.0257 2.1735z"/><path d="m8.15427 18.6478c0-.1305-.10561-.2363-.23631-.2363h-5.56459c-.1304 0-.2363.1058-.2363.2363 0 .1304.1059.2362.2363.2362h5.56459c.1307 0 .23631-.1058.23631-.2362z"/><path d="m40.7106 14.995c.1096-.0486.1786-.0792.198.0499.0009.0069.0021.014.0033.0208.0182.1026-.0324.2023-.1286.2431-1.421.6029-2.4709 2.0417-2.8281 3.5745-.1162.0033-.2207.0014-.3284-.0019-.0026.0002-.0051.0012-.0077.0019l-.0015.0004-.0013.0002-.0015.0001h-19.5363c-.1306 0-.2362-.1058-.2362-.2362 0-.1305.1056-.2363.2362-.2363h19.5315c.4628-1.534 1.5938-2.7795 3.055-3.3966.0159-.0067.0311-.0134.0456-.0199z"/><path d="m51.5179 16.3268c-.0218-.7085-.1763-3.3829-1.2697-4.2773-.5622-.46-1.9415-.8642-3.8289-1.3849-.8866-.2446-1.7241-.4756-2.086-.6426-.3428-.1583-2.1561-1.5917-3.9095-2.9777-5.0057-3.95699-7.2191-5.61948-7.9687-5.66933-.6875-.04583-10.7811-.09095-19.3291-.12119-.1389-.71348-.768-1.25378-1.5214-1.25378h-3.2706c-.4029 0-.7308.32768-.7308.73072v.50487c-3.526-.01111-6.0924-.01796-6.4404-.01867l-.4824-.00141.317 17.40759-.9974.4158.274 1.5063.2561.0922c.542.1949 3.5936.3322 8.1438.4311.4591 1.6599 1.9765 2.8802 3.7821 2.8802 1.7634 0 3.2556-1.1619 3.7522-2.7618 6.7914.0777 14.9844.1148 22.9254.1422.5396 1.525 1.9904 2.6196 3.7002 2.6196 1.6941 0 3.1336-1.0747 3.685-2.5778.0116.0003.0241.0007.0338.0012.0869.0033.1753.005.2648.005 1.1905 0 2.5808-.2842 3.5691-.5323.9386-.2358 1.6147-1.0775 1.644-2.0473l.0288-.9524c.0137-.4538-.1074-.8875-.3503-1.2552-.0579-.0874-.1219-.1755-.1911-.2631zm-1.3618 3.6014c-.9587.2409-2.3084.5133-3.4155.4999.014-.134.0213-.2698.0213-.4076 0-2.1695-1.7586-3.9281-3.9281-3.9281-2.1693 0-3.9282 1.7586-3.9282 3.9281 0 .1226.0076.2434.0185.3629-5.5675-.0194-14.6463-.0517-22.551-.1415.0011-.0203.0025-.0406.0039-.0608.0036-.0532.0072-.1063.0072-.1606 0-2.1695-1.7584-3.9281-3.9282-3.9281-2.1692 0-3.9281 1.7586-3.9281 3.9281 0 .0185.0013.0367.0027.0549.0011.0153.0022.0306.0025.046-3.7497-.0791-6.5342-.1828-7.4338-.3196l-.0336-.1834.8883-.3699-.3111-17.08539c3.8742.01063 29.6794.08339 30.7363.15332.7096.13451 4.9251 3.46647 7.4501 5.46247l.0086.0067c2.3341 1.8451 3.6751 2.8986 4.0994 3.0944.4313.1991 1.2629.4285 2.2258.6941l.0051.0014c1.2791.353 3.0306.8364 3.4816 1.2052.6044.4947.9266 2.478.9266 3.7195v.1748l.1134.1325c.0872.1016.1649.2039.2311.3039.1344.2036.2015.4476.1939.7054l-.0288.9521c-.0165.5493-.3988 1.026-.9299 1.1593zm-9.0604.0923c0-.9599.7782-1.7383 1.7381-1.7383.9601 0 1.7383.7784 1.7383 1.7383 0 .9602-.7782 1.7384-1.7383 1.7384-.9599 0-1.7381-.7782-1.7381-1.7384zm-25.9979-1.1444c.0314 0 .0633-.0063.0938-.0196.1198-.0519.1748-.1911.1226-.3109-.4123-.9492-1.3873-1.588-2.4258-1.589-.1302 0-.2363.1056-.2365.236s.1056.2365.236.2365c.8536.001 1.6542.5252 1.993 1.3048.0385.0891.1255.1422.2169.1422zm-4.3798 1.1444c0-.9599.7782-1.7383 1.738-1.7383.9602 0 1.7384.7784 1.7384 1.7383 0 .9602-.7782 1.7384-1.7384 1.7384-.9598 0-1.738-.7782-1.738-1.7384zm-2.384-19.31175h3.2706c.3584 0 .6629.22609.7841.54243-1.4302-.00496-2.8064-.00945-4.0767-.01347v-.50699c0-.01205.0099-.02197.022-.02197z"/></g></svg>