<svg fill="none" height="28" viewBox="0 0 55 28" width="55" xmlns="http://www.w3.org/2000/svg"><path clip-rule="evenodd" d="m53.8409 21.9029c-.0164.5351-.3945.9994-.9189 1.1292-.8762.2165-2.1086.4634-3.1237.4475.0208-.1533.0353-.3083.0353-.4673 0-1.9284-1.5864-3.4917-3.5435-3.4917-1.9569 0-3.5436 1.5633-3.5436 3.4917 0 .1451.0118.2871.0292.4276-4.6074-.0166-12.5779-.0676-20.3595-.1542.0072-.0905.014-.181.014-.2734 0-1.9284-1.5864-3.4917-3.5437-3.4917-1.9569 0-3.5436 1.5633-3.5436 3.4917 0 .062.0064.1222.0094.1831-7.42154-.1096-13.51503-.2557-14.572533-.4389l-.05882-.3181.813483-.3339-.26513-19.90235 39.0129-.09345c1.5688-.01722 2.9959.80745 3.7465 2.16405l1.1022 2.4549.0147.02961c.1205.21966.1147.47838-.0149.69258-.1298.21486-.3491.33786-.601.33786h-9.8747c-.2355 0-.4262.188-.4262.42 0 .163.0952.3029.2329.3724.601 1.7732 1.3282 9.2927.6072 11.8759-.0313.1119.0354.2274.1488.2583.0189.005.0381.0075.0569.0075.0933 0 .1792-.0613.2052-.1543.7323-2.6235.055-9.774-.5614-11.9398h4.4615c1.2825.9637 2.8486 2.3165 4.2737 3.4266 2.0994 1.6353 3.3053 2.5685 3.6767 2.7378.3822.1736 1.1302.3769 1.9961.6123 1.228.3339 2.7559.7493 3.18 1.0912.5969.4813.875 2.3058.875 3.3875v.1163l.0768.0885c.0816.094.1543.1883.2161.2805.1338.1993.2003.4372.1928.6882zm-7.5508 2.6546c-.8659 0-1.5679-.6917-1.5679-1.5452 0-.8532.702-1.5452 1.5679-1.5452.8661 0 1.5681.692 1.5681 1.5452 0 .8535-.702 1.5452-1.5681 1.5452zm-24.9359-2.5801c-.0275.012-.0563.0177-.0846.0177-.0825 0-.1609-.0473-.1957-.1264-.3056-.693-1.0278-1.1592-1.7978-1.1599-.1177-.0002-.2132-.0943-.2129-.2102.0002-.1159.0956-.2098.2131-.2098.9369.0009 1.8166.5685 2.1885 1.4125.0471.1062-.0026.2301-.1106.2761zm-2.4677 2.5801c-.8659 0-1.5679-.6917-1.5679-1.5452 0-.8532.702-1.5452 1.5679-1.5452.8661 0 1.5683.692 1.5683 1.5452 0 .8535-.7022 1.5452-1.5683 1.5452zm-8.0455-23.908087c0-.01071.0089-.01953.0198-.01953h2.9504c.34 0 .6283.22113.7249.524997h-3.6753c-.0109 0-.0198-.00861-.0198-.01953zm11.1673 0c0-.01071.0089-.01953.0198-.01953h2.9502c.3399 0 .6285.22113.725.524997h-3.6752c-.0109 0-.0198-.00861-.0198-.01953z" fill="#fff" fill-rule="evenodd"/><g fill="#192224"><path clip-rule="evenodd" d="m54.4134 26.4306c0 .6191-11.9756 1.121-26.7483 1.121-14.7726 0-26.74823-.5019-26.74823-1.121 0-.619 11.97563-1.1207 26.74823-1.1207 14.7727 0 26.7483.5017 26.7483 1.1207z" fill-rule="evenodd" opacity=".3"/><path clip-rule="evenodd" d="m41.9693 6.35072h-4.3826c-.1434 0-.2596-.11445-.2596-.25578v-2.3604c0-.14112.1162-.25578.2596-.25578h2.729c1.0566 0 1.9132.84399 1.9132 1.88517v.73101c0 .14133-.1162.25578-.2596.25578zm-28.6892 8.00338h-7.48634c-.2868 0-.5191-.2291-.5191-.5118v-4.4364c0-.2827.2323-.5118.5191-.5118h7.48634c.2868 0 .5194.2291.5194.5118v4.4364c0 .2827-.2326.5118-.5194.5118zm3.4994 0h7.486c.2869 0 .5196-.2291.5196-.5118v-4.4364c0-.2827-.2327-.5118-.5196-.5118h-7.486c-.2869 0-.5194.2291-.5194.5118v4.4364c0 .2827.2325.5118.5194.5118zm23.923-3.3064-4.2048-.6053.5196 4.19 3.6381 1.3036 6.0004-.1396z" fill-rule="evenodd" opacity=".1"/><path d="m41.9692 6.66563h-4.3826c-.3194 0-.5792-.25599-.5792-.57057v-2.36061c0-.31458.2598-.57057.5792-.57057h2.7288c1.2314 0 2.2331.987 2.2331 2.20017v.73101c0 .31458-.2598.57057-.5793.57057zm-1.6538-2.87175h-2.6687v2.24175h4.2624v-.67158c0-.86583-.7148-1.57017-1.5937-1.57017z"/><path d="m13.2799 14.669h-7.48607c-.4627 0-.839-.3709-.839-.8266v-4.43662c0-.4557.3763-.8268.839-.8268h7.48607c.4627 0 .839.3711.839.8268v4.43662c0 .4557-.3763.8266-.839.8266zm-7.68577-5.26322v4.43662c0 .1086.0895.1966.1997.1966h7.48607c.1102 0 .1997-.088.1997-.1966v-4.43662c0-.1086-.0895-.1968-.1997-.1968h-7.48607c-.1102 0-.1997.0882-.1997.1968z"/><path d="m3.61388 15.1347v4.7136l-1.2401.1048v-5.3073zm-.9332 3.7249.6494-.433-.0233-1.932s-.5796.3999-.6493.3999z"/><path d="m24.2655 8.57922c.4626 0 .839.3708.839.8265v4.43668c0 .4557-.3764.8268-.839.8268h-7.4861c-.4627 0-.8391-.3711-.8391-.8268v-4.43668c0-.4557.3764-.8265.8391-.8265zm-7.4861.63c-.1102 0-.1997.088-.1997.1965v4.43668c0 .1086.0895.1968.1997.1968h7.4861c.1101 0 .1996-.0882.1996-.1968v-4.43668c0-.1085-.0895-.1965-.1996-.1965z"/><path d="m31.3809 14.7298c.0978 0 .1769-.0941.1769-.21s-.0791-.21-.1769-.21h-1.2496c-.0978 0-.1768.0941-.1768.21s.079.21.1768.21z"/><path d="m32.4892 19.5071c0 .5153-.4256.9347-.9486.9347h-3.5374c-.523 0-.9486-.4194-.9486-.9347v-9.75142c0-.5155.4256-.9347.9486-.9347h3.5374c.523 0 .9486.4192.9486.9347zm-4.486-10.05612c-.1705 0-.3092.1367-.3092.3047v9.75142c0 .168.1387.3047.3092.3047h3.5374c.1705 0 .3092-.1367.3092-.3047v-9.75142c0-.168-.1387-.3047-.3092-.3047z"/><path d="m39.8169 10.3132c.9523.2346 2.5997 1.4219 3.3377 2.0171.8048.6489 3.3848 2.8824 3.8924 3.3831.1249.123.1249.3223 0 .4454-.0624.0615-.144.0922-.2259.0922-.0505 0-.0991-.0158-.1451-.0393-.0405.0185-.0855.0294-.1332.0294h-1.7229c-.1421.2224-.3335.3597-.5447.3599h-1.0882c-.1496 0-.2779-.148-.3352-.3599h-2.0927c-.1506 0-.2987-.0262-.4398-.0781l-2.0044-.7344c-1.0513-.3851-1.7879-1.3058-1.9224-2.4032l-.4002-2.6057c-.0264-.172.0938-.3326.2683-.3585.0488-.0075.0957-.0029.1394.0099.9437.0013 2.5798.0357 3.4169.2421zm5.252 4.9762c-.0003.1113-.0094.2186-.0252.3217h.9542c-.2858-.2549-.6377-.5641-1.0066-.8854.049.1712.0776.3617.0776.5637zm-2.2497-.7052c0-.3356.1647-.6075.3678-.6075h.9377c-.5722-.4912-1.0931-.9316-1.3752-1.1588-.782-.6306-2.3117-1.7025-3.0877-1.8936-.7086-.1747-2.1368-.2144-2.9792-.2219l.3435 2.2383c.1068.8713.6856 1.5948 1.5115 1.8976l2.0046.7344c.0697.0254.1428.0384.2169.0384h2.0601z"/><path d="m2.3806 21.5822c-.11785 0-.21312.094-.21312.21 0 .1159.09527.21.21312.21h12.4121c.1179 0 .2132-.0941.2132-.21 0-.116-.0953-.21-.2132-.21z"/><path d="m44.3748 18.5453c.0988-.0432.1611-.0704.1786.0444.0008.0061.0019.0124.0029.0184.0165.0912-.0291.1798-.1157.2161-1.2821.536-2.2292 1.8149-2.5514 3.1773-.1049.003-.1991.0013-.2963-.0016l-.005.0011-.0018.0005-.0041.0007h-17.6235c-.1178 0-.2131-.0941-.2131-.21 0-.116.0953-.21.2131-.21h17.6193c.4175-1.3636 1.4377-2.4707 2.7558-3.0192l.0226-.0096z"/><path d="m51.8915 16.5371c-.7467-.3297-2.0391-.6779-3.4568-.932l-.7742-.1386.5992.506c.3876.3278 1.5598 1.3188 1.6251 2.1597l.0143.1806.183.0128c.9783.0689 2.4607.2077 2.4754.2092l.2737.0256-.1648-1.0283c-.0705-.44-.3601-.8121-.7749-.995zm-.9635 1.4326-.641-1.5261c.5771.155 1.0715.3184 1.43.4767.283.125.4806.378.5285.6773l.0791.4939c-.3139-.0288-.8555-.0773-1.3966-.1218z"/><path d="m54.2077 20.0212c-.0567-.0844-.1202-.1699-.1897-.255-.0176-.5619-.15-2.9866-1.1067-3.7581-.5286-.4262-1.9951-.8249-3.4137-1.2106l-.0011-.0003-.0028-.0007c-.8031-.2184-1.5613-.4245-1.8953-.5766-.3203-.1454-1.9549-1.4186-3.5386-2.6521l-.0096-.0075c-1.1419-.8895-1.9662-1.5696-2.6373-2.1234-.3672-.3029-.6886-.5681-.9911-.8091h4.1079c.5514 0 1.0499-.2795 1.3331-.7473.282-.46582.2971-1.02757.0416-1.50637l-1.1032-2.45658-.0147-.02961c-.8995-1.64115-2.6277-2.64558-4.5111-2.61912l-13.9022.03318c-.0403-.72429-.6496-1.302-1.3949-1.302h-2.9502c-.3636 0-.6592.29148-.6592.64953v.48594c0 .06237.0117.12159.0286.17871l-6.1899.0147c-.0266-.73689-.6419-1.32888-1.3963-1.32888h-2.9505c-.3634 0-.6592.29148-.6592.64953v.48594c0 .07224.015.14028.0371.20517l-9.30779.02247c-.10401.00021-.19799.03864-.27194.09996l-.03879-.00021.00042.03507c-.07096.07518-.11508.17535-.11487.28623.00043.11424.04731.21756.12255.29316l.25894 19.61068-.88722.3641.22058 1.1962.17348.0615c.62593.2222 6.90463.3952 15.05094.5208.3743 1.533 1.7711 2.6735 3.4415 2.6735 1.6376 0 3.0118-1.096 3.4182-2.583 6.9501.0783 14.4244.1281 20.6087.1493.4548 1.411 1.7943 2.4337 3.3767 2.4337 1.5681 0 2.8957-1.0046 3.3628-2.3953.0759.003.1528.0042.2313.0042 1.0622 0 2.3076-.2507 3.1933-.4697.8007-.1983 1.3774-.906 1.4024-1.7212l.0262-.8463c.0117-.382-.0917-.7465-.2984-1.0546zm-.3668 1.8818c-.0164.5351-.3944.9994-.9189 1.1292-.8762.2165-2.1086.4634-3.1237.4475.0209-.1533.0353-.3083.0353-.4673 0-1.9284-1.5864-3.4916-3.5435-3.4916-1.9569 0-3.5435 1.5632-3.5435 3.4916 0 .1451.0117.2871.0292.4276-4.6075-.0166-12.578-.0676-20.3596-.1542.0072-.0905.014-.181.014-.2734 0-1.9284-1.5864-3.4916-3.5437-3.4916-1.9569 0-3.5436 1.5632-3.5436 3.4916 0 .0405.0028.0803.0055.1199.0014.0211.0029.0421.0039.0632-7.42151-.1096-13.51499-.2557-14.5725-.4389l-.05882-.3181.81348-.3339-.26512-19.90233 39.01296-.09345c1.5687-.01722 2.9958.80745 3.7464 2.16405l1.1022 2.4549.0147.02961c.1205.21966.1147.47838-.0149.69258-.1298.21484-.3491.33784-.601.33784h-9.8747c-.2355 0-.4262.188-.4262.42 0 .163.0953.3029.2329.3724.601 1.7732 1.3282 9.2927.6072 11.8759-.0313.1119.0354.2274.1488.2583.0189.005.0381.0076.0569.0076.0933 0 .1792-.0614.2052-.1544.7323-2.6235.055-9.774-.5614-11.9398h4.4615c.708.532 1.5024 1.1826 2.3118 1.8455.6568.5379 1.3235 1.0839 1.9619 1.5811 2.0994 1.6353 3.3053 2.5685 3.6767 2.7378.3817.1734 1.1283.3764 1.9927.6114l.0034.001c1.2278.3338 2.756.7493 3.18 1.0911.5969.4813.8751 2.3058.8751 3.3875v.1164l.0767.0884c.0816.094.1543.1883.2161.2805.1338.1993.2003.4372.1929.6882zm-7.5508 2.6546c-.8659 0-1.5679-.6917-1.5679-1.5452 0-.8532.702-1.5452 1.5679-1.5452.8661 0 1.5681.692 1.5681 1.5452 0 .8535-.702 1.5452-1.5681 1.5452zm-24.9359-2.58c-.0275.0119-.0563.0176-.0846.0176-.0825 0-.1609-.0473-.1956-.1264-.3057-.693-1.0279-1.1592-1.7979-1.1599-.1177-.0002-.2131-.0943-.2129-.2102s.0957-.2098.2131-.2098c.9369.0009 1.8166.5685 2.1885 1.4125.0471.1063-.0025.2302-.1106.2762zm-2.4677 2.58c-.8659 0-1.5679-.6917-1.5679-1.5452 0-.8532.702-1.5452 1.5679-1.5452.8661 0 1.5683.692 1.5683 1.5452 0 .8535-.7022 1.5452-1.5683 1.5452zm-8.0455-23.90807c0-.01071.0089-.01953.0198-.01953h2.9505c.3399 0 .6282.22113.7248.525h-3.6753c-.0109 0-.0198-.00861-.0198-.01953zm11.1673 0c0-.01071.0089-.01953.0198-.01953h2.9502c.3399 0 .6285.22113.7251.525h-3.6753c-.0109 0-.0198-.00861-.0198-.01953z"/></g></svg>