<svg fill="none" height="24" viewBox="0 0 57 24" width="57" xmlns="http://www.w3.org/2000/svg"><g clip-rule="evenodd" fill-rule="evenodd"><path d="m50.4888 11.0187c-1.0554-.0031-2.0412.3922-2.7878 1.1326-.4756.4718-.8132 1.0442-.9962 1.6693h-8.4323v-7.5716c0-.58-.4718-1.0515-1.0515-1.0515h-3.9213c-.5798 0-1.0516.4715-1.0516 1.0515v7.5716h-29.53122v-1.8576c0-.2134-.1734-.3868-.3868-.3868h-.836c-.026 0-.0518.0026-.0766.0078v-7.2524l21.51912-1.85098h24.9229c4.6535 0 7.7077 3.25198 7.8787 8.32778zm-17.5319 4.9397v-9.7094c0-.189.1538-.3428.3428-.3428h3.9213c.189 0 .3428.1538.3428.3428v9.7094c0 .189-.1538.3428-.3428.3428h-3.9213c-.189 0-.3428-.1538-.3428-.3428zm-31.37682-.6022h.6645v-2.4806h-.6645zm44.97082 3.1894h-23.1503c-.2351-1.6627-1.6604-2.943-3.3878-2.943-1.7277 0-3.1526 1.2803-3.3876 2.943h-2.586c-.2353-1.6627-1.6604-2.943-3.3879-2.943-1.72772 0-3.15252 1.2803-3.38782 2.943h-5.846v-2.7247c.0248.005.0506.0078.0766.0078h.836c.2134 0 .3868-.1736.3868-.3867v-1.1489h29.53122v1.6653c0 .5798.4718 1.0516 1.0516 1.0516h3.9213c.5797 0 1.0515-.4718 1.0515-1.0516v-1.6653h8.3283c-.0338.2086-.0548.4205-.0546.6362zm-26.5381 1.8969c-.7811 0-1.414-.6332-1.414-1.4142 0-.7811.6329-1.4142 1.414-1.4142.7812 0 1.4141.6331 1.4141 1.4142 0 .781-.6329 1.4142-1.4141 1.4142zm-7.0313-2.1468c-.0307.0132-.0624.0196-.0938.0196-.0914 0-.1781-.0532-.2169-.1423-.339-.7796-1.1397-1.3038-1.993-1.3045-.1302-.0003-.236-.1061-.236-.2365s.1061-.236.2362-.236c1.0383.0009 2.0134.6393 2.4261 1.5888.0522.1197-.0028.2589-.1226.3109zm-2.3302 2.1468c-.78102 0-1.41392-.6332-1.41392-1.4142 0-.7811.6329-1.4142 1.41392-1.4142.7811 0 1.414.6331 1.414 1.4142 0 .781-.6329 1.4142-1.414 1.4142zm12.6193-19.71179c0-.01205.01-.02197.022-.02197h3.2707c.3765 0 .6964.24877.8034.59063h-4.0741c-.012 0-.022-.00993-.022-.02198z" fill="#fff"/><g fill="#192224"><path d="m8.7735 10.8684h8.2988c.318 0 .5757-.2578.5757-.5757v-4.0461c0-.318-.2577-.5757-.5757-.5757h-8.2988c-.3179 0-.5755.2577-.5755.5757v4.0461c0 .3179.2576.5757.5755.5757zm20.378 0h-8.3273c-.3102 0-.5614-.2511-.5614-.5611v-4.0751c0-.3099.2512-.5613.5614-.5613h8.3273c.31 0 .5613.2514.5613.5613v4.0751c0 .31-.2513.5611-.5613.5611zm18.0319-1.9293h4.8583c.159 0 .2877-.1288.2877-.2878v-.8224c0-1.1713-.9495-2.1208-2.1208-2.1208h-3.0252c-.1587 0-.2877.1288-.2877.2878v2.6554c0 .159.129.2878.2877.2878z" opacity=".1"/><path d="m25.1606 23.6938c13.8958 0 25.1607-.4994 25.1607-1.1153s-11.2649-1.1154-25.1607-1.1154c-13.8957 0-25.1606.4995-25.1606 1.1154s11.2649 1.1153 25.1606 1.1153z" opacity=".3"/><path d="m50.4888 11.0187c-1.0554-.0031-2.0412.3922-2.7878 1.1326-.4756.4718-.8132 1.0442-.9963 1.6693h-8.4322v-7.5716c0-.5799-.4718-1.0515-1.0515-1.0515h-3.9213c-.5798 0-1.0516.4716-1.0516 1.0515v7.5716h-29.53117v-1.8576c0-.2133-.1734-.3867-.3868-.3867h-.8361c-.0259 0-.0517.0025-.0765.0077v-7.2524l21.51907-1.85097h24.9229c4.6534 0 7.7077 3.25197 7.8787 8.32777zm-17.5319 4.9398v-9.7095c0-.189.1538-.3428.3428-.3428h3.9213c.189 0 .3428.1538.3428.3428v9.7095c0 .189-.1538.3428-.3428.3428h-3.9213c-.189 0-.3428-.1538-.3428-.3428zm-31.37687-.6023h.6646v-2.4806h-.6646zm44.96617-.4269.0026 1.968h-.0075l.0085.7189.0011.9294h-23.1503c-.2351-1.6627-1.6604-2.9429-3.3879-2.9429-1.7277 0-3.1525 1.2802-3.3875 2.9429h-2.586c-.2353-1.6627-1.6604-2.9429-3.3879-2.9429-1.72767 0-3.15247 1.2802-3.38777 2.9429h-5.846v-2.7246c.0248.0049.0506.0078.0765.0078h.8361c.2134 0 .3868-.1737.3868-.3868v-1.1489h29.53117v1.6654c0 .5797.4718 1.0515 1.0516 1.0515h3.9213c.5797 0 1.0515-.4718 1.0515-1.0515v-1.6654h8.3283c-.0338.2086-.0548.4205-.0546.6362zm-26.5335 5.5132c-.781 0-1.4139-.6332-1.4139-1.4142 0-.7811.6329-1.4142 1.4139-1.4142.7813 0 1.4142.6331 1.4142 1.4142 0 .781-.6329 1.4142-1.4142 1.4142zm-7.0312-2.1468c-.0307.0132-.0624.0196-.0938.0196-.0914 0-.1782-.0532-.2169-.1422-.339-.7797-1.1397-1.3039-1.993-1.3046-.1302-.0003-.236-.1061-.236-.2365s.1061-.236.2362-.236c1.0383.0009 2.0134.6393 2.4261 1.5888.0522.1197-.0029.2589-.1226.3109zm-2.3302 2.1468c-.78097 0-1.41387-.6332-1.41387-1.4142 0-.7811.6329-1.4142 1.41387-1.4142.7811 0 1.414.6331 1.414 1.4142 0 .781-.6329 1.4142-1.414 1.4142zm12.6193-19.71178c0-.01205.01-.02197.022-.02197h3.2706c.3766 0 .6965.24877.8035.59063h-4.0741c-.012 0-.022-.00993-.022-.02198zm24.5889.8049h-19.7465c-.008-.84813-.7-1.53562-1.5498-1.53562h-3.2706c-.4028 0-.7307.32792-.7307.73072v.54668c0 .10041.0205.19633.0574.28374l-22.146766 1.90323v16.02623h6.787906c.2261 1.6727 1.65619 2.9633 3.39086 2.9633 1.7348 0 3.1646-1.2906 3.3909-2.9633h2.5796c.2264 1.6727 1.6562 2.9633 3.3909 2.9633 1.7348 0 3.1646-1.2906 3.3909-2.9633h23.1681l.0407 3.4554.945-.0111-.0626-5.3246-.0036-2.6824c-.0012-.7966.3097-1.5446.8756-2.1057.5655-.5613 1.3069-.8731 2.1364-.8587l6.1876-.2474v-.4541c0-5.8176-3.5492-9.72638-8.8313-9.72638zm-18.501 8.77168c0 .1141-.0929.207-.207.207h-8.3273c-.1141 0-.207-.0929-.207-.207v-4.0748c0-.1141.0929-.207.207-.207h8.3273c.1141 0 .207.0929.207.207zm-.207-4.9905h-8.3273c-.5051 0-.9157.4108-.9157.9157v4.0748c0 .5049.4106.9157.9157.9157h8.3273c.5051 0 .9157-.4108.9157-.9157v-4.0748c0-.5049-.4106-.9157-.9157-.9157zm-11.8579 4.9762c0 .1222-.0993.2214-.2214.2214h-8.29846c-.1222 0-.22141-.0992-.22141-.2214v-4.0462c0-.1222.09921-.2212.22141-.2212h8.29846c.1221 0 .2214.099.2214.2212zm-.2214-4.9761h-8.29846c-.5129 0-.93011.4172-.93011.9299v4.0462c0 .5127.41721.9301.93011.9301h8.29846c.5129 0 .9301-.4174.9301-.9301v-4.0462c0-.5127-.4172-.9299-.9301-.9299zm30.1778 3.2679h4.725v-.7558c0-.974-.7924-1.7664-1.7664-1.7664h-2.9586zm-.0666-3.2309h3.0252c1.3648 0 2.4752 1.1103 2.4752 2.4751v.8224c0 .3542-.288.6422-.6422.6422h-4.8582c-.3541 0-.6421-.288-.6421-.6422v-2.6554c0-.3542.288-.6421.6421-.6421zm-10.0777 5.8555h-1.3062c-.1307 0-.2363-.1058-.2363-.2362 0-.1305.1056-.2363.2363-.2363h1.3062c.1307 0 .2363.1058.2363.2363 0 .1304-.1056.2362-.2363.2362z"/></g></g></svg>