<svg fill="none" height="33" viewBox="0 0 37 33" width="37" xmlns="http://www.w3.org/2000/svg"><path d="m.15569.0337959c.709841-.0555975 1.61252-.02760195 2.335-.0200419l3.2621.0285861 3.96601.0256332c.9212.0041737 1.8787-.0079931 2.7944.0453207.416.43533.2465.924446.5028 1.436956 1.2842.16399 2.5455.24058 3.8377.29062 1.1125.04304 2.2209.23263 3.3421.2346.9781.00169 1.9731.13478 2.9497.18475.5322.02724 1.0725.00216 1.6051.03606.3324.02347.6535.08108.9856.10813.292.3767.374.57349.3899 1.03753.2558.07209.3079.07493.5482.21719.1814-.42222.3268-.89003.2121-1.34525-.1722-.68366-.0894-.90539.4191-1.393517.7115.444467 1.7108.649847 2.5361.694217-.2421 1.09006.4322 3.33463.6816 4.47729.4259 1.95135 1.3812 3.85218 2.1309 5.69883.384.9455 1.1851 1.1619 1.4668 2.0717.0527.1702-.6017.7469-.7441.8861.2401 1.1852.8262 2.1846 1.2708 3.2955.3066.5501.4163 1.5283.6942 2.0339.4429.8058.7124 1.2827.9701 2.1902.3677 1.2947.1741 2.5797-.0148 3.8905-.0853.5922-.0855 1.1616-.2297 1.7445-.0318.1309.1167.3543.0499.481-.073-.0667-.1261-.1354-.2184-.1431-.198.3191.2943.6448.0345.87-.117-.0867-.1535-.232-.2204-.3801-.1864.3882-.687 1.3188-.5566 1.7487.1195.3939-.2517.4638-.2515.7532l.1237.1077c-.3087.1799-.279.3848-.2074.7037l-.1073.0375c-.278-.1751-.0268-.2641-.152-.5416-.2053.0153-.7586.2221-1.0163.2721-.3443.0667-.6076.0364-.9142.0716-.7269.0835-.9538.2835-1.609-.157.059-.3466.1233-.4849.2535-.8125-.3588-1.1874-.992-2.3138-2.2944-2.8079-.0817-.031-.3297.0593-.4613.054-.0868-.1249-.0665-.2368-.0785-.4055-.6104-.5163-.497-1.307-.6193-1.9737-.0985-.5367-.2916-.6638-.7137-.8725-.1854-.0916-.2221-.4051-.2572-.6057-.0635.171-.1107.3041-.1977.4671-.1322-.0609-.1542-.0692-.2549-.179-.0408-.2022.0959-.2174.0806-.3059-.0357-.2072-.3433-.2729-.2532-.5749l.1025-.0389c.1462.0591.1854.1621.2807.3053l.0504-.0285c.129-.3429.087-1.0397.0819-1.4292.1409-.1685.1759-.2116.1699-.4247l-.0415-.0263c-.0304.0247-.061.049-.0919.073-.3089.2385-.3524.0474-.6549.0071-.0375.1354.1179.4582.1409.6374.0229.178.033.3083.0385.4882-.3153-.2201-.4975-.3268-.7266-.6358-.638-.8608-1.1689-1.6319-1.3694-2.7152-.0198-.1069-.4986-.4912-.5115-.7101.3774-.3601 1.2582-1.2602 1.3361-1.8173.0205-.1469-.2402-.4333-.3914-.4231-.0512.1007-.029.204-.0176.3166l.1266.1011c-.0394.0806-.0764.0937-.1544.1454-.3301-.0457-.0873-.4876-.353-.7314-.0626-.0576-.1462-.0867-.231-.0804-.1553.0101-.3448.1145-.3275.2917.1368.0477.2755.1033.411.1557.0694.4231-.0258.5051-.2116.8959-.0346.0728-.1132.0727-.1809.0807-.2801-.0941-.4684-.4917-.7622-.7515.1471-.5794.2056-1.0978.341-1.7137.1877-.8537.6737-1.8347.5519-2.7446-.0286-.2139-.3007-.8226-.2359-1.0297.0827-.0567.1006-.0663.1661-.1405-.1246-.3103-.4003-.6481-.5558-.9513-.0606-.1182-.0524-.3723-.0769-.5225-.143-.048-.6441-.0958-.8153-.0818-.0385.0032-.0286.1406-.1996.1756-.1141-.0867-.2293-.172-.3454-.2559-.0138-.15991-.0183-.43605-.1271-.54831-.5868-.15513-.3746-.9433-1.3141-1.11057-.0479-.32728-.073-.44411-.0385-.77309-.1851-.18352-.6417-.58247-.8471-.71768-.2919-1.041-.6847-.94272-1.4011-1.44774-.9771-.68871-.882-.61362-2.0758-.32075-.4338.51089-.0338.71997-.2704.97106-.2232.01985-.443-.16124-.6233-.28657-.2745.20046-1.5569 1.12601-1.7646 1.14097-.0809-.0804-.0586-.2064-.081-.35607l-.0653-.03496c-.2442.05808-.4018.33764-.6329.42387-.2908.10852-1.0343.10907-1.259.27818l-.0722-.01126c-.1119-.16431.0242-.6007-.1153-.897-.1005-.21333-.1568-.2796-.296-.47207-.6494-.1712-.4614-.17994-.97014-.54947-.40761-.29606-.77596-.6035-1.16629-.90476-.43292-.33414-1.12234-.51892-1.62146-.74446-1.47538-.65965-3.31159-.33816-4.83832-.03678-.11316.02236-1.71267.17738-1.735705.16955.020963-.16479.457069-.48494.45992-.56346.02355-.64878-.107636-.69213.181085-1.31189-.20973-.25649-.268135-.3445-.590487-.45097-.49614833-.895777-.653924-.43155-.348713-1.5435741z" fill="#000"/></svg>