<svg fill="none" height="29" viewBox="0 0 33 29" width="33" xmlns="http://www.w3.org/2000/svg"><path d="m.285981.640194c-.03784-.028941-.075286-.058354-.112377-.088239-.1220229-.098792-.158484-.134033-.173604-.277594l.0647714-.067528c.4233996-.1453725 4.6909786-.094894 5.4637186-.103163 3.14779-.0537468 6.29601-.0784738 9.44421-.0741032 1.3799-.004095 3.2871-.071663 4.6127.0123239.1196.2147513 1.1196 1.3286293 1.3225 1.4987293-.4323.92673-.3818 1.67726-.0273 2.6284.0987.26464.1088.32662.0667.60819l.0121.01866c.2206.34485.2411.61582.4169.89232.2553.40131.8306.76411 1.1584 1.11856.1641.1579.2568.51916.4394.64831 1.0594.74958 1.5633 1.0204 1.56 2.4381-.0008.33594.1928.80694.5116 1.05134.3117.0571.5081-.4041.8399-.4541.3181-.0479.9603.2872 1.2262.4799.4421.3203.0581.5227-.0425.8621-.0572.1928.0167.419-.0457.6112-.3182.9817-.9865 1.4267-.8111 2.5958.3565.3215.8524.9394 1.2157 1.1967 1.0511.7447 1.5593.6008 2.2874 1.7955.1746.0995.3849.1905.5692.2757.0232.29-.0169.6958.0464.9688.0382.1638.354.4883.3654.701.0118.2179-.1555.3458-.2665.512-.0319.0479-.1225.1806-.1107.2235.1741.6205.5454.7765.6607 1.4715.1914.1562.3209.2402.528.372.2698.0012.2619.1255.6513.0841.0689.0277.0457.0134.0894.0931-.0807.9038-.0366 1.6319-.5926 2.4081-.1811-.1176-.4205-.368-.5761-.4059-.1996.1448-.2374.8481-.5355 1.0794-.1366-.1008-.0433-.4861-.172-.657l-.1389-.0148c-.3649.1932.1164.8458.0051 1.1791-.2078.1843-.3533-.009-.4288.255.0492.1669.1706.1552.2834.3275l-.0548.063c-.1344.0556-.4582.0372-.6185.0366.2057.2419.2755.3473.4377.6214-.3185.3472-.3772.4632-.5578.895-.5881.0287-2.5251.1045-3.0662.0289l-.0319-.0431c.0023-.4704 1.1121-1.3106 1.4484-1.7108.0611-.7515-.1626-.5527-.3875-1.2513-.8364-.0596-1.9708-.028-2.8263-.0281l-4.9064-.0005-13.9481.0009c.04555-.4979.02268-1.3221.02291-1.8428l.00079-3.2966.00402-11.10185c-.2107-.11171-.42498-.1501-.65808-.23255-.2531-.05344-.64827-.53712-.6993-.80168-.12773-.66248-.77517-.83928-1.0206-1.41872.02154-.26582.25464-.62389.41694-.83837.28543-.37725.20885-.31768.60646-.37859.06674-.08946.04414-.39371.04394-.52593-.04851-.03615-.17506-.11096-.20361-.15215-.12753-.18415-.09662-.29295-.32496-.3728-.17238.03457-.34307.18038-.48994.28665-.37958-.36005-1.14956-.85597-1.56453-1.23468-.09808-.08954.14136-.23019.02213-.43159-.10438-.17636-.3135-.30642-.34319-.48128.02654-.05375.08867-.18085.05052-.22157-.19393-.20695-.578423-.36567-.820776-.53168.002677.00185.058393-.19215.057723-.19352-.157381-.3141-.302203-.785575-.396466-1.106796z" fill="#000"/></svg>