<svg fill="none" height="17" viewBox="0 0 36 17" width="36" xmlns="http://www.w3.org/2000/svg"><path d="m.0405952.0229965c.7670338-.0337354 1.6302648-.02019694 2.4026848-.02085966l3.87105-.0009467 11.85927.00334475 10.416-.00123032 3.3657.00006308c.7713.00031558 1.612-.01035093 2.3782.03231535-.0217.753634.0259 1.536077.0057 2.292867-.0044.16594.0114.39423.0338.55883.1578 1.172.3118 2.3451.4794 3.51584.082.57959.1792 1.17894.2082 1.7649.0155 2.14478-.0814 4.29498-.1 6.44018-.006.6987-.088 1.4403-.0644 2.1309-.6365-.2103-1.6085-.3371-1.9244-.9955-.2931-.1047-.7293-.3956-1.108-.5486-.1685.1956-.2417.2843-.4655.4157-.2578.0596-.4519.0199-.7009-.0347-.0678-.0956-.1429-.1903-.2149-.2831-.444.0883-.7586.239-1.1594.4485-.1054-.074-.2449-.1417-.3606-.2022-.5465.3408-.6696.1059-1.1023.6179-.1025.0023-.1906.0057-.2928.0143-.109.0719-.1129.0782-.1533.2281l-.0042.016-.0557.0145c-.1293-.0697-.0868-.1069-.1492-.1731-.2461-.2609-.4989-.2029-.8888-.4858-.0318-.1547-.042-.302-.1947-.3711-.1925.0642-.2076.4696-.5469.2976-.0912-.0462-.2808-.0716-.3831-.0819-.0694-.1616-.1649-.4444-.3948-.3663-.1487.0506-.1729.3024-.287.4032-.0597.0527-.1457.0466-.2124.0851-.0555.1891-.0726.4141-.162.5883-.0217.0422-.0516.0348-.0956.0413-.1131-.057-.1873-.2105-.2563-.3232.0264-.0756.051-.1519.0737-.2287.0304-.1057.0425-.2122-.0124-.3123-.2495-.0985-.6803.4028-.982.3408-.0927-.0618-.1481-.2171-.1976-.3241-.08-.0123-.3731-.0293-.4088-.0349-.088-.0138-.0619-.3268-.2024-.4378-.3423-.0554-.8663.8494-1.2672.5767-.0745-.1469-.0243-.3474-.0123-.5443-.1934-.0699-.3955-.1127-.6007-.1271-.0262-.2092-.0242-.4368-.0279-.649-.4433.0776-.7224.0296-1.1522.0807-.1059.0126-.1647.1166-.232.2064-.2571.1319-.391-.0903-.5729-.2538-.2507-.2253-.4424-.0111-.6999-.0037-.317.0091-.614-.2314-.9089-.3182-.2068-.0618-.7185.0192-.9036-.0838-.0801-.0446-.0718-.4309-.0731-.544-.0954-.0938-.1695-.2053-.2661-.2985-.1578-.1523-.3498-.2926-.5252-.426-.0195.1804-.0001.3521-.164.4496-.1256.0064-.2982-.0838-.42-.136-.8086.3937-.7732-.2613-1.3366-.6971-.1226-.0948-.459-.0842-.5546-.1709-.0315-.3497-.0164-.8841-.0165-1.2456l-.0002-2.19791c-.0002-2.02198-.0309-4.10793.0039-6.12416-.4243-.0314-1.0351-.01531-1.4704-.0155l-2.56419-.00009-8.27984678-.00789c.01180268-.34414-.04520342-2.319728.03113198-2.4940535z" fill="#000"/></svg>