<svg fill="none" height="21" viewBox="0 0 36 21" width="36" xmlns="http://www.w3.org/2000/svg"><path d="m5.03588 0c.09997.0105525.05713-.00850447.13202.0608349.07769.2360531-.0265 1.5105451-.03359 1.8716151.6504.01795 1.30796.07516 1.95761.0945.91283.04709 1.85594-.00666 2.76519.04264 2.29799.12454 4.59189.04863 6.89089.06402 1.1138.01111 2.2941.21479 3.404.15817 2.9136-.1486 5.814-.18215 8.7309-.15269.9178.00925 1.9281-.10175 2.8326-.02839.1866.1573.4077.31279.6072.45391.0225.88362.2725.4421.8485.78226.0889.05249.2578.1955.2775.30118-.1464.31772-.0151.22184.1281.48668.1029.19022.0397.62614.0404.86735.0015.56275.4393 1.19216.9236 1.46385.695.29503.7927.04606 1.3905.64216-.886.64536-.9818.84078-1.1428 1.83629-.5445.39777-.6095.45128-.8959 1.05942-.8211.4138-.537.591-.1313 1.2447-.3709.707-.0344.5343-.6678.9746-.0926.2414-.0658.9745-.0439 1.2492.0295.3696.496.3216.6436.4298.1908.1401.1982.7575.2066.99.5585.3744.8859.8562 1.3345 1.3536.2013.2232.8082.7294.7702 1.0177-.1106.0777-.4676.0607-.5755.1124-.0769.0368-.2437.2602-.3502.3429-.7573.5881-1.2964.7367-1.5776 1.7002-.144.0755-.3634.1654-.517.2339-.304.1641-.5168.1618-.8605.1992-.0807.121-.1308.1903-.2248.3011-.5419.1666-.6024-1.3226-2.4327.7487-.382.039-.9661.0272-1.3596.0284l-2.2241.0054-7.1274.0128c-4.4048.0143-8.80959-.0295-13.21321-.1312l-3.17473-.0933c-.79073-.0198-1.579042-.0119-2.36716-.0892.0783405-6.1969.509473-12.38005.583451-18.5659.760779-.26771 1.849499-.75537 2.562549-1.145968.9294-.509158.84483-.614053 1.88988-.922832z" fill="#111"/></svg>