<svg fill="none" height="54" viewBox="0 0 227 54" width="227" xmlns="http://www.w3.org/2000/svg" xmlns:xlink="http://www.w3.org/1999/xlink"><clipPath id="a"><path d="m0 0h226.969v54h-226.969z"/></clipPath><g clip-path="url(#a)"><path d="m169.335 3.15445c5.628-.339 12.162.10444 17.858.09434 4.146-.00736 4.296 3.69303 3.302 6.83181-1.295 4.0867-.722 7.4067-6.054 7.9135.568 2.2308 1.093 4.5202 1.623 6.7561.843 3.5414-1.4 4.5982-4.486 4.5506-1.787-.0276-3.751.0083-5.545.0078-.116-1.5817-.625-3.9079-.895-5.5416-.328-1.8682-.718-3.9216-.966-5.7881-.861-.0322-2.286-.0507-3.113.0656-.102.9456-1.605 6.8221-1.995 7.6981-.295.6736-.713 1.2866-1.231 1.8073-1.88 1.8698-4.185 1.763-6.625 1.7609l-3.879-.0108c1.684-2.3139 2.272-5.6991 2.969-8.4659.804-3.1361 1.592-6.2764 2.364-9.4207 1.019-4.13443 1.416-8.02536 6.673-8.25895zm2.883 10.44675c1.361-.0118 5.784.0806 6.851-.14.987-.8463.995-2.3427 1.292-3.5373.147-.5863.545-1.51633.302-2.07455-.727-.55588-5.759-.35904-6.929-.30303-.424 2.04028-1.119 4.10218-1.516 6.05488z" fill="#d6d6d5"/><path d="m155.781 31.181c.007.0419.004.1112-.021.1463-1.484 2.0882-3.457 2.8964-5.927 3.0991-6.006.4929-12.029.8185-18.033 1.2673l-59.2788 4.2414-28.3043 2.0602-7.7877.5508c-1.8379.1452-3.7784.4174-5.6199.3368-1.5469-.0677-8.596-3.1155-10.6096-3.9028-1.3298-.576-2.7798-1.1376-4.1312-1.7031 7.6902-.1336 15.6452-.5671 23.3385-.8664l50.1946-1.9575 41.7104-1.6275c7.415-.2961 14.836-.4387 22.244-.9433.61-.0416 1.661-.4452 2.225-.7013z" fill="#676666"/><g fill="#d6d6d5"><path d="m194.538 3.1421c2.169-.12231 7.045-.05839 9.233.02282-1.079 3.02002-.553 4.38724-.221 7.50988.253 2.5405.532 5.0783.837 7.6131.211 1.7713.499 3.6671.602 5.4299 2.164-3.5388 4.37-7.0513 6.618-10.5368 1.195-1.8933 4.788-8.1119 6.212-9.26468 1.434-1.16062 7.114-.88458 9.058-.68732-1.464 1.51031-2.036 2.27506-3.216 4.00657-2.291 3.87793-5.212 8.02573-7.628 11.89963-1.286 2.0613-3.61 5.9384-5.187 7.596-2.661 2.7978-6.519 2.5583-10.077 2.5622-1.93.0115-3.859.0028-5.789-.0262-.061-1.374-.474-3.979-.638-5.4548l-1.258-11.201c-.23-1.9672-.52-3.93381-.714-5.90441-.191-1.94431-.144-3.37683 2.168-3.56489z"/><path d="m34.9383 14.5658c1.0005-.0871 2.8417-.0448 3.9495-.0785.0288.4572.0052 1.1045.0023 1.5764.4771-.538.8271-1.0128 1.4415-1.3958 2.248-.3423 5.2323-.0647 7.5369-.1023 3.3811-.0552 3.8644 2.5671 3.0749 5.2915-.5725 1.9758-.9194 4.4356-1.7868 6.3407-.2385.537-.5758 1.0244-.9941 1.4369-1.8326 1.8279-3.9127 1.6507-6.3055 1.6428l-3.6503-.0026c-1.1193-.0058-1.2494-.1534-1.7946-1.074-.3068.7936-.6791 1.8994-.7851 2.7359-.606 4.7798-4.6022 3.9216-8.4941 3.8843l2.766-10.9991c.5416-2.1804 1.0505-4.3696 1.6673-6.5297.506-1.7716 1.5591-2.5652 3.3721-2.7265zm6.2613 11.7543c.1415-.093.5393-.3603.596-.5153.7732-2.1157 1.2255-4.5071 1.8023-6.6957.0975-.3703.156-.9887.1407-1.3143-.327-.4865-3.585-.2971-4.3036-.2884-.1566.1483-.4759.479-.5222.675-.3192 1.3509-2.2432 7.0699-1.6929 8.0437.6402.2624 3.3066.2312 3.9797.095z"/><path d="m82.1911 14.5631c.8446-.071 2.2545-.0527 3.1797-.0994-.0123.5109-.1398 1.214-.2184 1.7341.3406-.426 1.089-1.4849 1.6675-1.5292 2.8359-.2171 5.9654-.2482 8.7869.0475.4401.046.7256.8408.8772 1.182.3998-.4989.7074-.9456 1.27-1.2574l.0383-.021c1.6949-.1887 3.5557-.0345 5.2667-.0904 2.333-.0763 4.23.4059 4.066 3.2144-.167 2.8783-1.161 5.8254-1.962 8.5906-.166.572-.805 1.4526-1.227 1.8811-1.747 1.4809-4.9908 1.084-7.1537 1.0537 1.7777-2.0371 2.1025-5.6606 2.9059-8.1863.1894-.5954.8438-2.9052.4748-3.3926-.661-.3214-2.7893-.1837-3.6142-.1644-.6286 1.2278-.8781 2.7111-1.1891 4.0682-1.8846 7.3888-1.7042 7.8585-9.6544 7.6489 1.1115-1.3089 1.6995-3.2459 2.0376-4.8983.2331-1.1393 1.7125-6.0378 1.3907-6.6776-.5061-.2842-3.5909-.2715-3.7899.1304-1.4508 2.9283-1.2739 7.7078-3.461 10.2451-1.4184 1.6456-5.2402 1.2531-7.3015 1.2149.317-.4102.674-.8349.9047-1.3006 1.4648-2.956 1.9559-9.7197 3.6601-11.8391.7883-.9804 1.8247-1.4226 3.0451-1.5546z"/><path d="m134.226 14.5674c.578-.0648 2.551-.053 3.243-.0803-.034.5369-.18 1.1876-.283 1.7247.529-.6181 1.07-1.4554 1.929-1.5939 1.119-.1804 8.159-.2689 8.856.2501.012.0094.025.0194.037.0288.313.2347.424.7318.542 1.0924.426-.6834 1.022-1.3833 1.905-1.4265 1.621-.0864 3.289.0593 4.915-.0309 2.215-.123 4.059.5845 3.869 3.1898-.279 2.8533-1.12 5.8866-1.98 8.6205-1.135 3.6115-5.434 2.9725-8.314 2.9207 1.754-2.3537 2.071-5.5146 2.851-8.2957.279-.9935.62-2.4021.697-3.418-4.465-.3088-4.021-.336-5.007 3.768-1.575 7.8009-2.109 8.0363-9.69 7.9617.492-.6714 1.073-1.5303 1.298-2.3219.342-1.2068 2.485-8.5608 2.157-9.2926-.333-.1993-.756-.1884-1.134-.1955-.734-.0138-2.019-.0832-2.66.3078-.779.4747-1.6 8.4612-3.488 10.2627-1.805 1.7239-5.01 1.2695-7.281 1.2134 3.44-4.006 1.701-14.1579 7.538-14.6853z"/></g><path d="m124.771 37.6926c.309.0202.718-.0432.871.2096-.138.0361-.261.0486-.399.0741-4.163.768-8.355 1.4402-12.523 2.1672l-29.5118 5.1042-23.4812 4.1096c-2.1635.3805-6.9416 1.5644-8.891 1.4889-1.0954-.0424-12.0863-4.4591-13.5776-5.2258 2.8589-.3499 5.9793-.5704 8.8583-.8247l15.0898-1.3404 38.5613-3.5336c5.4982-.4646 10.9932-.9673 16.4842-1.5083 2.833-.2516 5.687-.4251 8.519-.7208z" fill="#676666"/><path d="m112.706 14.5668c1.07-.0982 3.244-.055 4.441-.0832-.513 2.6829-1.391 5.4622-1.979 8.1069-.367 1.6271-1.847 3.933 1.033 3.9028 3.552-.0373 3.244-.5484 3.959-3.6024 1.814-7.7292 1.652-8.3533 9.54-8.3769-.137 1.372-1.034 4.5665-1.413 6.0823-.28 1.1018-.752 2.7291-.959 3.8123-1.067 5.5478-3.481 4.9226-8.221 4.873l.208-1.4972c-.689.8306-1.37 1.3553-2.47 1.4826-.894.1033-1.851-.0123-2.752-.0154-1.796-.0062-4.538.4252-6.042-.7879-.621-.5015-.913-1.376-.992-2.1444-.188-1.8168 1.59-8.9821 2.717-10.3609.741-.9071 1.8-1.2836 2.93-1.3916z" fill="#d6d6d5"/><path d="m58.5649 11.4539c1.5167-.054 3.1436-.0973 4.6551-.043-.2299 1.0601-.4925 2.0575-.7695 3.104 1.8448.0892 4.0741.0332 5.9469.0342-1.2365 3.5237-3.7833 2.8265-6.7137 2.9591-.5853 2.6137-1.5328 5.7005-1.9567 8.2644-.3033 1.8336 5.6169-1.2733 5.6756 2.6549-.0808.3003-.1039.4786-.3334.696-.2541.126-.7231.2456-.9957.225-2.9153-.2202-5.9494.0138-8.8463-.0938-5.8688-.2179-1.3798-8.2913-1.1128-11.6524-.1306-.1587-.1205-.1218-.3296-.1429-1.1835-.1194-2.4126-1.4381-2.0319-2.7142.4492-.3362 2.4293-.1923 3.1022-.1784.743-1.8835 1.7077-2.7443 3.7098-3.1129z" fill="#d6d6d5"/><path d="m73.2305 14.5691c.953-.0961 3.3253-.0325 4.3821-.0337-.9783 2.9494-1.5144 6.45-2.3885 9.47-.7657 2.6453-1.0543 4.6266-4.287 5.2076-1.1594.1233-3.2939.0489-4.4973.0363.3704-1.9374.9564-4.4033 1.5119-6.3091 1.0109-3.4682.8626-7.9303 5.2788-8.3711z" fill="#d6d6d5"/><path d="m74.8388 9.24799c1.0571-.08505 2.8238-.0514 3.9345-.06281-.175 1.19582-.5511 2.74902-.8896 3.90012-.9467.04-2.1977.0085-3.1653.0101l-4.2641.0198c.922-2.3429 1.8806-3.34003 4.3845-3.86721z" fill="#d6d6d5"/><path d="m124.771 37.6926c.654-.0987 3.522-.3559 4.121-.3076-.714.1133-2.662.4953-3.25.5172-.153-.2528-.562-.1894-.871-.2096z" fill="#58575c" fill-opacity=".929412"/><path d="m0 23.0723c.402106-2.5372 1.14492-5.2704 1.89096-7.74 1.05143-3.4805 1.65429-8.45483 4.77521-10.71546.96966-.69115 2.08618-1.14812 3.26198-1.33507 2.78455-.43858 7.02575-.06314 10.00675-.13212 2.7808.06643 5.9372-.19042 8.6551.11291 5.5338.61761 3.3129 7.77654 2.2824 11.21024-1.3043 4.3464-1.719 10.8019-5.5919 13.6162-2.0686 1.5031-5.0442 1.3343-7.4321 1.3315l-6.3269-.0099c-1.85046-.0028-3.6949-.0053-5.55646.0312-1.87991.0369-3.91029-.1751-5.076217-1.8817-.544346-.7968-.675301-1.508-.888823-2.4232zm16.7262 1.9976c.5672-.2041 1.315-.5213 1.5053-1.1768 1.3531-4.6616 2.4079-9.4355 3.6393-14.13597.1847-.70499.4715-1.93874-.5076-2.06559-1.9175-.2484-3.9488-.13052-5.891-.11112-.5929.10393-1.0437.25339-1.4043.76334-.401.56695-4.1232 15.32944-4.0123 15.87374.0451.2214.1861.4472.3755.5719.9241.6088 5.0191.3253 6.2951.2805z" fill="#d6d6d5"/></g></svg>