<svg fill="none" height="50" viewBox="0 0 209 50" width="209" xmlns="http://www.w3.org/2000/svg" xmlns:xlink="http://www.w3.org/1999/xlink"><clipPath id="a"><path d="m0 0h208.984v50h-208.984z"/></clipPath><g clip-path="url(#a)"><path d="m156.544 2.90406 10.177-.00487c1.806-.0004 3.724-.12664 5.517.07988.853.09832 1.898.29693 2.604.81005.572.41525.894 1.16456.996 1.84417.255 1.69966-1.292 8.07531-2.318 9.43631-.926 1.2312-2.273 1.4021-3.69 1.6091.583 2.1329 1.377 5.2951 1.641 7.4948.027.7096-.298 1.5804-.812 2.053-.956.8792-2.103.9196-3.352.918-1.742-.0024-3.518.0061-5.275-.0299-.231-1.8779-.524-3.7477-.878-5.6063-.141-1.4981-.689-3.2911-.745-4.889l-2.889-.0039c-.139 1.0714-.538 2.1333-.704 3.1397-1.325 8.0156-4.59 7.6133-11.896 7.3257 1.492-2.1863 1.853-4.5248 2.486-7.0363l2.164-8.6626c1.134-4.6136 1.179-8.35929 6.974-8.47784zm2.019 9.71354c1.383-.1158 5.441.1216 6.385-.2196.632-.5679 1.646-4.47104 1.409-5.13419-.592-.57625-5.212-.27161-6.39-.35425-.292 1.80889-.989 3.90814-1.404 5.70804z" fill="#cd202f"/><path d="m143.466 28.8862-.035.1676c-3.288 3.6055-6.253 2.869-10.861 3.2067l-11.503.8176-69.8447 5.019-15.7084 1.1581c-2.3798.1688-4.9226.5523-7.2985.4514-1.1514-.0489-8.0353-2.9719-9.6173-3.6218-1.2961-.5135-2.5883-1.037-3.8763-1.5706 6.9561-.07 14.3443-.5479 21.3289-.7976l51.3179-1.9814 34.4624-1.3347 12.953-.5327c2.146-.0976 4.314-.1922 6.459-.3229.801-.0489 1.494-.3417 2.223-.6587z" fill="#9a9999"/><path d="m179.09 2.90389c2.684-.03224 5.858-.06276 8.518.02168-.247.72497-.561 1.68264-.542 2.45374.126 5.47849 1.395 11.15199 1.653 16.59579 2.687-4.4016 5.423-8.7744 8.205-13.11752 1.023-1.6086 2.018-3.5222 3.29-4.90115.923-1.0008 2.494-1.09532 3.754-1.07409 1.647.02774 3.303-.01136 4.955.07774-1.186 1.18257-2.037 2.3583-2.973 3.72848-3.181 4.76194-6.136 9.75164-9.27 14.55154-.747 1.1453-1.435 2.469-2.402 3.434-1.024 1.0048-2.284 1.7343-3.664 2.1205-1.907.518-8.761.3385-11.127.3318-.483-5.0073-1.039-10.0074-1.667-14.9986-.242-2.0301-.491-4.05841-.72-6.09028-.189-1.66767-.017-2.98164 1.99-3.13363z" fill="#cd202f"/><path d="m32.0407 13.5005c1.2574-.0335 2.515-.0557 3.7727-.0669l-.0168 1.4113c.1004-.121.2041-.2393.311-.3545 1.5236-1.6363 2.9904-.8991 4.7502-.994 6.5903-.3329 7.2006.8072 5.5417 6.8945-1.4788 5.4266-1.6083 6.7299-7.8218 6.6974-1.1328-.0052-2.2656-.0008-3.3983.0136-1.0577-.0294-1.3088-.1137-1.6468-1.1295-.0851.0108-.1827.36-.2007.4593-1.1715 6.4431-2.2473 5.873-8.3422 5.8043l2.8389-11.3272c.4476-1.7641.9201-4.5424 1.8367-6.1429.439-.7665 1.4989-1.1449 2.3754-1.2654zm5.5511 10.9379c.3185-.06.6999-.1372.8335-.4453.6435-1.4846 1.8336-6.2048 1.788-7.6097-.2582-.423-2.9589-.2278-3.5613-.2256-.3113.0779-.5804.1945-.719.4902-.469.9994-1.9837 6.7994-1.7992 7.5674.6537.3848 2.6314.2369 3.458.223z" fill="#232323"/><path d="m138.926 13.4077c4.641.095 9.204-1.3031 7.238 5.7899-.457 1.648-.76 3.8211-1.439 5.3733-.25.5745-.607 1.0957-1.054 1.5353-1.399 1.3697-4.569.9892-6.563.9679 1.883-2.0513 2.415-7.5153 3.296-10.2344.067-.2028-.005-.3852-.131-.5424-.521-.2124-3.161-.3116-3.436.1263-1.834 2.923-.895 9.751-5.148 10.5485-1.105.2075-3.542.1041-4.81.1372 1.013-1.3458 1.222-1.9008 1.623-3.5676.274-1.0332 1.866-6.5761 1.519-7.1914-.395-.2796-3.145-.3521-3.36.0228-1.548 2.6886-1.286 7.0499-3.176 9.5272-1.169 1.5326-4.961 1.1695-6.8 1.2055 2.487-3.0642 2.226-10.1995 4.434-12.4693 1.427-1.4668 3.602-1.1766 5.473-1.2057-.077.52-.145 1.041-.206 1.5631.287-.3842.987-1.3726 1.567-1.4156 2.344-.1741 5.864-.3606 8.148.0909.486.096.569 1.0259.723 1.1196.624-1.0636.887-1.2321 2.102-1.3811z" fill="#232323"/><path d="m86.601 13.419c1.3094-.0292 1.8754.1587 2.2079 1.4561.1417-.2315.2881-.4628.4596-.6736.3924-.4819.9334-.7093 1.5461-.7684.7802-.0755 4.8491-.014 5.7035.1251.4948.0806 1.0293.2314 1.4219.5582.4769.3971.6066 1.1462.6527 1.7285.1602 2.0189-1.3464 8.5323-2.6498 10.0367-1.558 1.7982-4.6714 1.0995-6.7951 1.2506 1.9496-2.7408 1.9899-5.7218 2.9745-8.9059.1296-.419.4352-1.4966.2112-1.874-.5064-.2932-3.2072-.3517-3.4283.0354-1.5685 2.7461-1.1782 7.0565-3.2272 9.5509-1.0831 1.3185-3.4951 1.157-5.0657 1.1447-.5221-.0049-1.1539.0299-1.6844.0468 1.9237-2.6451 2.3553-7.0855 3.2326-10.2444.0644-.2318-.04-.4324-.1677-.6135-.5935-.2701-3.2171-.2457-3.4832.3114-1.3029 2.7274-1.1293 7.0026-3.0918 9.3819-1.2269 1.4875-4.924 1.1357-6.7569 1.1288 2.6279-2.9465 2.2078-10.1993 4.5343-12.4961 1.45-1.4316 3.5815-1.183 5.4463-1.1691l-.263 1.7242c.8288-1.2468 1.3397-1.7709 2.9798-1.7605 1.748.011 3.4944.047 5.2427.0262z" fill="#232323"/><path d="m118.499 34.5414.07.0059.012.0883c-5.801.9532-11.594 1.9502-17.379 2.991l-32.4086 5.644-13.6784 2.4211c-1.7443.3317-3.4902.6542-5.2377.9678-2.2652.4059-2.8346.7504-5.0589-.1677-2.2357-.9226-4.558-1.8222-6.8127-2.7111-1.2537-.5562-2.5072-.978-3.7984-1.5648 7.2255-.7698 14.7505-1.2977 22.007-1.9707z" fill="#9a9999"/><g fill="#232323"><path d="m106.998 13.4186.861.0358c-.84 3.3774-1.701 6.7515-2.496 10.1387-.042.1824-.031.3618.062.5262.618.4552 4.023.4965 4.267.0414 1.461-2.7234 1.211-7.1247 3.263-9.5103 1.308-1.5202 4.585-1.2167 6.49-1.212-.468 2.6326-1.367 5.4344-1.969 8.0664-1.093 5.9784-2.266 5.6486-7.706 5.5717l.077-1.3807c-.472.5519-.814.9235-1.419 1.3261-.205.0203-.494.0496-.688.0473-6.871-.1011-10.9249 1.512-8.3674-7.3325 1.6314-5.6423.9494-6.3125 7.6254-6.3181z"/><path d="m56.2737 10.5642 1.9628-.0302c-.2052.9721-.4826 1.9919-.7282 2.9593 1.5367-.0688 3.963-.093 5.4825-.0251-1.1036 3.2348-3.4458 2.5917-6.1817 2.7227-.5725 2.4164-1.2623 4.8353-1.7879 7.2609-.0806.3717-.0874.4951.0957.7537.7288.389 1.9145.1836 2.7446.2273.5258.0335 1.3917-.0802 1.786.3279.4646.4811.8964 1.6373.3361 2.1775-.2592.2499-1.1235.1538-1.4874.143-1.6906-.0061-3.3811-.0029-5.0716.0093-1.9876.0057-5.7841.3967-5.3729-2.8175.3336-2.6083 1.2017-5.4382 1.8595-8.0043-1.1789-.2265-1.8415-.6933-2.392-1.8576-.1284-.2715-.0372-.4322.0774-.6797.4941-.4347 2.1296-.2357 2.8753-.2111 1.251-3.0379 2.9948-2.931 5.8018-2.9561z"/><path d="m67.3842 13.5003c1.3421-.0057 2.684-.0185 4.0259-.0384-.4584 1.9845-2.3957 10.7176-3.2468 11.9039-.6916.9641-1.7122 1.5046-2.8634 1.6947-1.3304.0483-2.7917.0316-4.1364.0496.4634-2.0701 2.3684-10.8944 3.366-12.1752.6952-.8923 1.7681-1.2986 2.8547-1.4346z"/><path d="m69.8654 8.51556c.9794-.03721 1.7991-.0133 2.7721.02213-.3654 1.10999-.6612 2.45951-.9248 3.60291l-3.701-.008-3.1241.0047c.9985-2.55002 2.2672-3.4689 4.9778-3.62174z"/><path d="m0 21.1498c.420689-2.0239.930861-4.2835 1.56028-6.2579 1.12148-3.5176 1.54541-8.62818 4.90043-10.81984.83385-.54107 1.77457-.896 2.75802-1.04059 1.51917-.21946 6.88327-.09707 8.64037-.09414l4.969-.0128c4.8754-.01591 7.7836.27437 6.5431 6.5801-.3735 1.89897-1.0001 3.78067-1.4081 5.67587-.7333 2.7049-1.3056 6.223-2.6653 8.6175-.535.9404-1.29 1.737-2.2004 2.3215-2.1096 1.3615-4.3896 1.1124-6.7976 1.1089l-5.6467-.007c-1.82759-.0021-3.71172-.0066-5.53405.0129-2.98924.0318-4.406001-.8591-5.11905-3.801zm15.082 2.0878c.6827-.1064 1.139-.246 1.5564-.8227.536-.7404 3.2479-12.1233 3.5218-13.51877.0769-.39205.1817-.92668.1034-1.3156-.0281-.13959-.0899-.20844-.2072-.28111-1.0214-.63249-4.2775-.35352-5.5714-.3187-.6931.09372-1.1041.23066-1.5377.79698-.4009.5237-3.1726 11.7935-3.4725 13.2905-.09681.4831-.20919 1.0661-.14394 1.5558.00904.0683.02221.136.03944.2027.8866.6485 4.455.4594 5.7117.4109z"/></g></g></svg>