<svg fill="none" height="30" viewBox="0 0 37 30" width="37" xmlns="http://www.w3.org/2000/svg"><path d="m7.67014.00431135c.38997-.02244375.89389.04835255 1.29245.08308125.51746.0412254 1.03536.0764664 1.55361.1056824l7.2686.416864c-.1914.275388-.3191.668071-.4354.988551.4344-.04977.9509-.21723 1.4022-.31055.7131 1.24858.9752.9118.8109 2.54146.5053-.01442 1.0848.01141 1.6003.01504 1.3276.00535 2.6551.02256 3.9823.0517.6386.01027 1.2772.01724 1.9159.02098.3473.00213.7144-.00228 1.0587.02052.1397.00925.3828.22223.4831.32858.6341.67241 1.2738 1.35974 1.8955 2.04234l2.4645 2.65935 2.3495 2.52899c.3613.3877 1.0191 1.0532 1.3245 1.4562-.2735.2062-.6867.4366-.9836.6382-.9832.6676-1.9364 1.3657-2.6697 2.3162-.1538.2066-.3127.3763-.3949.6217-.2095.6256.2256 2.0411-.8011 2.0367-.1022-.2268-.1733-.9299-.1836-1.1867-.1287-.1097-.3413-.2403-.4876-.3363-.0365.0828-.0711.1666-.1037.2511-.5464 1.4378 1.0512 1.6224.2117 2.5408-.1414.1547-.8729.6086-1.0881.6922-.6125-.1673-.5568.1295-1.0819-.2381-.2243.4104-.3692.8266-.5148 1.2679.0859.109.1589.2102.2388.3238-.0056.2951-.7193.5884-.9557.754-.441.309-.9923.2715-1.5097.2679.2838-.2015.5519-.3677.7359-.678.0952-.1604.2884-.4662.0839-.5966-.3419-.0084-.7563.4244-1.0001.648-.6897-.3325-.633-.5255-1.1555.2066.5829.5508 1.1183.8354 1.9097.869-.0923.269-.1235.3513-.1437.6363-.4279.1555-.828.1646-1.2655.3411-.5807.74-.6902.4463-1.2196.738l-.0867-.0302c-.2034-.2603.0869-.8579.1205-1.203l.0027-.0302c-.9402-.1756-.8496.5756-.726 1.198l.2524.2441c-.2981.6603-.496.5836-1.1676.6915-.113-.2162-.2498-.692-.5115-.7611-.3753-.099-1.3859.1867-1.7246.3425.4536.3614 1.2235.6736 1.7713.928.0474.2015.0926.4034.1356.6059-.675.5032-1.4196.803-2.197.3111l-.1681-.3913c.0448-.1771.0917-.3537.1406-.5297-.1828-.3072-.2401-.4751-.3477-.8085-.2911-.1526-.4115-.2038-.7238-.3059-.5653 1.2035-.1079 1.873.8348 2.6595.2001.167.6363.2187.586.502-.2061.2684-.7686.5825-1.1504.5508-.5615-.0467-1.3627.3745-1.9443.4793-.0935-.1061-.1854-.2134-.2759-.3221-.1918-.2327-.4222-.6041-.2646-.9095.0687-.1333.1372-.1977.1519-.3455-.1486-.5759-.8758-1.4038-1.1579-1.978-.2657-.5407-.6247-1.0101-1.0727-1.4137-.1034-.9941.0521-1.3462.0188-2.2263-.1862-.2122-.426-.6167-.5421-.8533-.5458-1.112-1.029-1.444-2.2198-1.7548-.0923-.0241-.3796-.1288-.4416-.2113-.2161-.2878-.0057-1.1106-.1714-1.4277-.2159-.4131-.4951-.5829-.7267-1.0267.1891-.3313.2705-.3892.5461-.6546-.5762-.4262-1.9578-1.0975-2.51358-1.603-.29705-.2701-.2748-1.1418-.83656-1.63-.5242-.4555-1.39069-.7015-1.79416-1.1397-.38442-.4594-.96733-.9538-1.23429-1.4826-.28102-.5568.01795-1.34737.01661-1.92055-.00133-.57007-.79151-1.30056-1.1475-1.69553-.51959-.57645-.80994-.39324-1.48133-.37768-.33983-.35587-.50977-.87968-.81568-1.13294-.37221-.30815-.86791-.28287-1.3000859-.66319l-.0917241-.45577c.370629-1.01418 1.40059-1.00375 2.10974-1.59075.28659-.26739.40086-.69146.60959-1.01308.20825-.34811.39497-.43155.80006-.39229.93602.09072 1.72529-.448561 2.56351-.78754.53061-.214594 1.01804-.368787 1.58724-.50726865z" fill="#000"/></svg>