<svg fill="none" height="24" viewBox="0 0 75 24" width="75" xmlns="http://www.w3.org/2000/svg"><g clip-rule="evenodd" fill-rule="evenodd"><path d="m71.5406 18.5473h1.7719v-2.7169h-1.7719zm-3.7367-4.2542h-11.8125v-7.5713c0-.58-.4721-1.0518-1.0518-1.0518h-3.9211c-.5797 0-1.0515.4718-1.0515 1.0518v7.5713h-38.2725v-1.8576c0-.2131-.1737-.3868-.3868-.3868h-.836c-.0263 0-.0518.0029-.0766.0078v-9.57588h48.3323c5.0047 0 9.0765 4.07178 9.0765 9.07668zm-17.1282 2.1378v-9.7091c0-.1893.1538-.3431.3428-.3431h3.9211c.189 0 .343.1538.343.3431v9.7091c0 .189-.154.3428-.343.3428h-3.9211c-.189 0-.3428-.1538-.3428-.3428zm-40.1183-.6022h.6646v-2.4806h-.6646zm57.2465 2.7169h-25.1389c-.3303-1.5467-1.7036-2.7072-3.3489-2.7072-1.6452 0-3.0185 1.1605-3.3486 2.7072h-2.6642c-.33-1.5467-1.7033-2.7072-3.3488-2.7072-1.645 0-3.0183 1.1605-3.3486 2.7072h-16.2108v-2.2522c.0248.0052.0503.0078.0766.0078h.836c.2131 0 .3868-.1734.3868-.3865v-1.1491h38.2725v1.6653c0 .58.4718 1.0516 1.0515 1.0516h3.9211c.5797 0 1.0518-.4716 1.0518-1.0516v-1.6653h11.8125zm-28.4878 2.1326c-.7808 0-1.4142-.6331-1.4142-1.4141 0-.7811.6334-1.414 1.4142-1.414.7811 0 1.4142.6329 1.4142 1.414 0 .781-.6331 1.4141-1.4142 1.4141zm-7.0312-2.1468c-.0308.0133-.0627.0196-.0941.0196-.0912 0-.1783-.0531-.2168-.1422-.3386-.7796-1.1397-1.3038-1.9928-1.3045-.1304-.0003-.236-.1061-.236-.2365s.1058-.236.2362-.236c1.0383.0009 2.0133.6392 2.4258 1.5887.0522.1198-.0026.259-.1223.3109zm-2.3304 2.1468c-.7808 0-1.414-.6331-1.414-1.4141 0-.7811.6332-1.414 1.414-1.414.781 0 1.4144.6329 1.4144 1.414 0 .781-.6334 1.4141-1.4144 1.4141zm10.3262-19.94725c0-.01229.0097-.02221.022-.02221h3.2704c.3768 0 .6965.24877.8035.59063h-4.0739c-.0123 0-.022-.00993-.022-.02198z" fill="#fff"/><g fill="#192224"><path d="m26.2704 11.1042h8.2988c.318 0 .5757-.2577.5757-.5757v-4.04602c0-.318-.2577-.5758-.5757-.5758h-8.2988c-.3179 0-.5755.2578-.5755.5758v4.04602c0 .318.2576.5757.5755.5757zm12.0507 0h8.3273c.31 0 .5613-.2511.5613-.5611v-4.07502c0-.31-.2513-.5614-.5613-.5614h-8.3273c-.3102 0-.5614.2514-.5614.5614v4.07502c0 .31.2512.5611.5614.5611zm25.6921-1.69252h-4.8582c-.159 0-.2878-.1287-.2878-.2877v-2.6555c0-.159.1288-.2877.2878-.2877h3.0252c1.1711 0 2.1208.9495 2.1208 2.1208v.8224c0 .159-.1288.2877-.2878.2877z" opacity=".1"/><path d="m39.8083 23.7707c17.1577 0 31.0669-.4994 31.0669-1.1153 0-.616-13.9092-1.1154-31.0669-1.1154-17.1579 0-31.06684.4994-31.06684 1.1154 0 .6159 13.90894 1.1153 31.06684 1.1153z" opacity=".3"/><path d="m71.5406 18.5473h1.7719v-2.7169h-1.7719zm-3.7368-4.2542h-11.8125v-7.5713c0-.58-.472-1.0518-1.0517-1.0518h-3.9211c-.5797 0-1.0515.4718-1.0515 1.0518v7.5713h-38.2725v-1.8576c0-.2131-.1737-.3868-.3868-.3868h-.8361c-.0262 0-.0517.0029-.0765.0078v-9.57587h48.3323c5.0047 0 9.0764 4.07177 9.0764 9.07677zm-17.1281 2.1379v-9.7092c0-.1893.1538-.3431.3428-.3431h3.9211c.189 0 .343.1538.343.3431v9.7092c0 .189-.154.3428-.343.3428h-3.9211c-.189 0-.3428-.1538-.3428-.3428zm-40.1183-.6022h.6646v-2.4807h-.6646zm57.2464 2.7168h-25.1388c-.3303-1.5467-1.7036-2.7072-3.3489-2.7072-1.6452 0-3.0185 1.1605-3.3486 2.7072h-2.6642c-.33-1.5467-1.7033-2.7072-3.3488-2.7072-1.645 0-3.0184 1.1605-3.3486 2.7072h-16.2108v-2.2521c.0248.0052.0503.0078.0765.0078h.8361c.2131 0 .3868-.1735.3868-.3866v-1.1491h38.2725v1.6654c0 .5799.4718 1.0515 1.0515 1.0515h3.9211c.5797 0 1.0517-.4716 1.0517-1.0515v-1.6654h11.8125zm-28.4877 2.1327c-.7808 0-1.4142-.6332-1.4142-1.4142 0-.7811.6334-1.414 1.4142-1.414.7811 0 1.4142.6329 1.4142 1.414 0 .781-.6331 1.4142-1.4142 1.4142zm-7.0313-2.1468c-.0307.0132-.0626.0196-.094.0196-.0912 0-.1784-.0532-.2169-.1423-.3385-.7796-1.1396-1.3038-1.9927-1.3045-.1304-.0003-.236-.1061-.236-.2365s.1058-.236.2362-.236c1.0384.0009 2.0133.6393 2.4258 1.5887.0522.1198-.0026.259-.1224.311zm-2.3303 2.1468c-.7808 0-1.414-.6332-1.414-1.4142 0-.7811.6332-1.414 1.414-1.414.781 0 1.4144.6329 1.4144 1.414 0 .781-.6334 1.4142-1.4144 1.4142zm10.3262-19.94734c0-.01229.0097-.02221.022-.02221h3.2704c.3768 0 .6965.24877.8035.59063h-4.0739c-.0123 0-.022-.00993-.022-.02198zm33.7408 15.92604-.0003-.8871c0-.3574-.2908-.6482-.648-.6482h-1.8931c-.3574 0-.6482.2908-.6482.6482v2.7882h-2.083v-7.0008c0-5.5258-4.4959-10.02168-10.0215-10.02168h-13.6043c-.0082-.8479-.7-1.53562-1.55-1.53562h-3.2704c-.403 0-.7307.32791-.7307.73096v.54644c0 .0912.0189.17766.0494.25822h-30.1713v17.01708l-9.139328 3.329c-.2452297.0893-.3713897.3605-.2820897.6058.0697.1918.2508997.3109.4439197.3109.05363 0 .1082-.0093.16159-.0286l9.002508-3.2792h16.9037c.1172 1.7858 1.599 3.1991 3.4141 3.1991 1.8156 0 3.2973-1.4133 3.4145-3.1991h2.5328c.1172 1.7858 1.599 3.1991 3.4143 3.1991 1.8154 0 3.2971-1.4133 3.4143-3.1991h23.849v.0017h6.7345l.0017 3.4353.7087-.0005zm-39.2309-6.1282c0 .1221-.0993.2214-.2214.2214h-8.2985c-.1222 0-.2214-.0993-.2214-.2214v-4.0463c0-.1221.0992-.2211.2214-.2211h8.2985c.1221 0 .2214.099.2214.2211zm-8.5199-4.9761c-.5129 0-.9301.4172-.9301.9298v4.0463c0 .5127.4172.9301.9301.9301h8.2985c.5129 0 .9301-.4174.9301-.9301v-4.0463c0-.5126-.4172-.9298-.9301-.9298zm20.3778 5.1973c.1141 0 .207-.0928.207-.2069v-4.0749c0-.1141-.0929-.2069-.207-.2069h-8.3276c-.1138 0-.2067.0928-.2067.2069v4.0749c0 .1141.0929.2069.2067.2069zm-9.243-4.2818c0-.5048.4106-.9157.9154-.9157h8.3276c.5051 0 .9157.4109.9157.9157v4.0749c0 .5048-.4106.9157-.9157.9157h-8.3276c-.5048 0-.9154-.4109-.9154-.9157zm24.7745.067c.9743 0 1.7667.7924 1.7667 1.7664v.7558h-4.725v-2.5222zm-3.025-.7088c-.3541 0-.6421.288-.6421.6422v2.6554c0 .3542.288.6421.6421.6421h4.8583c.3541 0 .6421-.2879.6421-.6421v-.8224c0-1.3648-1.1104-2.4752-2.4754-2.4752zm-4.2712 5.6182c0 .1304-.1056.2362-.2363.2362h-1.2679c-.1307 0-.2363-.1058-.2363-.2362s.1056-.2363.2363-.2363h1.2679c.1307 0 .2363.1059.2363.2363z"/></g></g></svg>