<svg fill="none" height="24" viewBox="0 0 45 24" width="45" xmlns="http://www.w3.org/2000/svg"><g clip-rule="evenodd" fill-rule="evenodd"><path d="m10.568 1.65387h-4.46656c-.2079 0-.3766-.16845-.3766-.37635v-.546677c0-.2079.1687-.376351.3766-.376351h3.2704c.66056 0 1.19616.53558 1.19616 1.196138zm33.1998 16.89343h-1.7719v-2.7169h1.7719zm-30.5193-.0017h25.5838v-6.9882c0-5.005-4.072-9.07675-9.0768-9.07675h-28.75526v16.06495h4.3108c.4134-1.4271 1.7275-2.4714 3.2881-2.4714 1.56046 0 2.87466 1.0443 3.28816 2.4714h-5.21526zm-2.413.2413c.0312 0 .0631-.0064.0938-.0199.1197-.0517.1746-.1911.1226-.3107-.4127-.9494-1.38746-1.588-2.42576-1.589-.1304 0-.2365.1059-.2365.236 0 .1307.1056.2365.236.2365.8531.0007 1.65416.5252 1.99296 1.3048.0385.0891.1255.1423.2169.1423zm-3.65056.713c0 .781.6332 1.4139 1.4142 1.4139.7808 0 1.41396-.6329 1.41396-1.4139 0-.7811-.63316-1.4142-1.41396-1.4142-.781 0-1.4142.6331-1.4142 1.4142z" fill="#fff"/><g fill="#192224"><path d="m5.12555 11.3401h8.29875c.318 0 .5757-.2578.5757-.5758v-4.04602c0-.318-.2577-.5757-.5757-.5757h-8.29875c-.3179 0-.5755.2577-.5755.5757v4.04602c0 .318.2576.5758.5755.5758zm23.85805-1.92832h4.8582c.159 0 .2878-.1288.2878-.2878v-.8224c0-1.1713-.9496-2.1208-2.121-2.1208h-3.025c-.1588 0-.2878.1288-.2878.2878v2.6554c0 .159.129.2878.2878.2878z" opacity=".1"/><path d="m22 23.8476c13.8957 0 19.5713-.4995 19.5713-1.1154s-5.6756-1.1153-19.5713-1.1153c-13.8958 0-22 .4994-22 1.1153s8.1042 1.1154 22 1.1154z" opacity=".3"/><path d="m41.9413 18.5473h1.7719v-2.7169h-1.7719zm-3.1636-4.2542h-11.8128v-7.5713c0-.58-.4718-1.0518-1.0515-1.0518h-3.9213c-.5798 0-1.0516.4718-1.0516 1.0518v7.5713h-18.69618v-1.8576c0-.2131-.1737-.3868-.3868-.3868h-.836c-.025997 0-.051796.0029-.076396.0078v-9.57587h28.755776c5.0047 0 9.0768 4.07177 9.0768 9.07677zm-17.1284 2.1379v-9.7092c0-.1893.1538-.3431.3428-.3431h3.9213c.1887 0 .3428.1538.3428.3431v9.7092c0 .1892-.1541.3428-.3428.3428h-3.9213c-.189 0-.3428-.1536-.3428-.3428zm-20.54208-.6022h.6646v-2.4807h-.6646zm37.67048 2.7168h-26.9454c-.4135-1.4272-1.7277-2.4714-3.28818-2.4714-1.5606 0-2.8747 1.0442-3.2881 2.4714h-4.310896v-2.2521c.0246.0052.050399.0078.076396.0078h.836c.2131 0 .3868-.1735.3868-.3866v-1.1491h18.69618v1.6654c0 .5799.4718 1.0515 1.0516 1.0515h3.9213c.5797 0 1.0515-.4716 1.0515-1.0515v-1.6654h11.8128zm-27.9034.2214c-.0307.0135-.0626.0198-.0938.0198-.0915 0-.1784-.0531-.2169-.1422-.3388-.7796-1.13988-1.3041-1.99298-1.3048-.1304 0-.236-.1058-.236-.2365 0-.1302.1058-.236.2362-.236 1.0383.0009 2.01328.6395 2.42608 1.589.052.1196-.0029.259-.1226.3107zm-2.33018 2.1468c-.781 0-1.4142-.6329-1.4142-1.414 0-.781.6332-1.4142 1.4142-1.4142.7808 0 1.414.6332 1.414 1.4142 0 .7811-.6332 1.414-1.414 1.414zm-2.5196-20.18308c0-.01205.0099-.02197.0218-.02197h3.2706c.3768 0 .69648.24877.80368.59063h-4.07428c-.0119 0-.0218-.00993-.0218-.02198zm38.39738 15.92628v-.8871c0-.3574-.2908-.6482-.6483-.6482h-1.8928c-.3575 0-.6483.2908-.6483.6482v2.7882h-1.5098v-7.0007c0-5.5259-4.4959-10.02178-10.0218-10.02178h-18.8342c-.008-.8479-.6998-1.53562-1.54978-1.53562h-3.2706c-.4028 0-.7305.32792-.7305.73072v.54668c0 .0912.0186.17766.0493.25822h-5.36499793v17.95498h5.11889793c0 .0031-.0005.0062-.0005.0092 0 1.8919 1.5337 3.4257 3.4256 3.4257 1.89188 0 3.42568-1.5338 3.42568-3.4257l-.0003-.0046-.0002-.0046.0005.0092 25.0102-.0092v.0017h6.7346l.0014 3.4353.7087-.0005zm-30.361-5.8925c0 .1221-.0992.2213-.2214.2213h-8.29848c-.1222 0-.2214-.0992-.2214-.2213v-4.0463c0-.1221.0992-.2211.2214-.2211h8.29848c.1222 0 .2214.099.2214.2211zm-.2214-4.9762h-8.29848c-.5129 0-.9301.4173-.9301.9299v4.0463c0 .5126.4172.9301.9301.9301h8.29848c.5129 0 .9301-.4175.9301-.9301v-4.0463c0-.5126-.4172-.9299-.9301-.9299zm15.4878 3.2691h4.725v-.7557c0-.9741-.7923-1.7665-1.7664-1.7665h-2.9586zm-.0666-3.2309h3.0252c1.3648 0 2.4752 1.1103 2.4752 2.4752v.8223c0 .3542-.288.6422-.6421.6422h-4.8583c-.3541 0-.6421-.288-.6421-.6422v-2.6554c0-.3541.288-.6421.6421-.6421zm-3.5797 5.6998h-1.4616c-.1307 0-.2363-.1059-.2363-.2363s.1056-.2362.2363-.2362h1.4616c.1307 0 .2363.1058.2363.2362s-.1056.2363-.2363.2363z"/></g></g></svg>