<svg fill="none" height="35" viewBox="0 0 36 35" width="36" xmlns="http://www.w3.org/2000/svg"><path d="m9.72475 0c.64575.0332089 1.42795.0141712 2.08075.0141633l3.613.000362c.5618.000252 1.6077-.0258457 2.1386.0285666.1276.1572561.0409 5.5874081.01 6.1730681.7185.29142.4809.51885.8333.78372.2185-.0128.1412-.11875.3626-.1788.4116.20006.257.00453.593-.0263.3428.14234.1552.27326.36.58842.1208.10666 1.7773.43631 1.8907.40627.9218-.24432.8707-.10588 1.4265.65646.2076.28476.4789-.24716.6807-.25992.2375-.015.5141.32863.719.4364.1108.05874.2829-.16577.3965-.1512.2242.02874.0907.18435.2445.34055l.1168-.01287c.2324-.13845.1117-.34985.4086-.41891.1446.01476.2413.12249.3531.22014.8053-.20699.762.01028 1.3292.29661.1361-.02059.5633-.3995.8556-.54632.1415.01665.3237.05776.4669.08571l.5321-.24262c.1981.06693.3973.13056.5975.19089.3166-.19274.4266-.36662.7789-.14924.6174.38108 1.2816.6456 1.919.98643.3831-.18542.637-.13849 1.064-.13742-.0095.43863.0375 1.21284.062 1.64404.0374.6575.0586 3.214.2689 3.7335.3462.8551.9664 1.9264 1.3653 2.9096-.1336.3179-.2232.6682-.3481.9861-.247.6285-.1726.8972.059 1.4893-.0875.5084-.1175.5434-.5198.8398.0136.171.1442.7494-.0557.8032-.6341.1706-1.2805.3304-1.8078.7473-.104.0823-.1153.0845-.2376.0679-.2177-.2323.2889-.7918.0451-1.0295-.199-.0326-.7275.2409-.8396.4301-.221.3731.5689.7614.3329 1.1053-.1099.1601-.5799.2651-.7671.2909-.1013 1.4792-.7105 1.2005-1.8449 1.6445-.0961.0376-.5407.4575-.6783.3903-.2657-.13-1.158-.194-1.3551.0431.0792.2104.6018.2087.3697.655-.1905.1534-.5316.0881-.787.0726-.0905.069-.1577.4553-.2873.6008-.2777.3118-.7981.0296-1.0097.3103-.0083.2895.184.1004.3604.2898-.1457.2099-.2343.3142-.2873.5679l-1.1028-.0185c.2153.1721.5084.3224.7532.4581-.0597.2709-.21.7038-.2494.9598-.1094.7111-.111.9365-.3702 1.613.1183.3438.221.5399.3285.9223.0701.4873.2891 1.0328.5381 1.4581.0924.1578.35.4987.3149.6661-.4661.1205-.4572.1503-.7439.5317-.5188-.5542-.7727-.7771-1.6118-.8454-.0996-.0081-.1833.1062-.3342.044-.9062-.3734-.7141-.568-1.718-.6249l-.364-.3052c-.1789-.0116-.3823-.0104-.5633-.0134-.1451-.0987-.2085-.158-.3369-.2794-.2798-.7664.0446-.9256-.8125-1.5324-.2335-.5318.067-.6504-.504-1.0783.6024-1.135.1485-.73-.5329-1.4558-.3052-.3252-.6877-.8748-.8192-1.3053-.5826-.4599-.7338-.2728-.7845-1.1365-.0377-.3143-.35-.6277-.4598-.9017-.4815-1.2008-1.6864-2.4274-2.7414-3.1171-.4249-.2777-1.0932.1571-1.9483-.4525-.1688.0485-.3374.1402-.4927.1914-1.3662.4507-1.13795.5639-1.51485 1.8592-.64527.3945-.34649.4191-.73776.7987-.32229.0955-.98765-.5016-1.28938-.6435-.08603-.0405-.24089-.0728-.33421-.092-.39592-.4285-.51278-.3025-.95268-.5618-.12628-.0745-.67576-.5981-.78667-.7334-.74014-.903-.72068-.9811-.68509-2.0385-.51101-.6978-.17108-.8652-.47659-1.5237-.47262-.2789-.84105-.5631-1.37474-.6581-.19727-.1864-.33615-.4152-.51019-.628-.20077-.2454-.4519-.4508-.65618-.6715-.44263-.4782-.49868-.7381-1.103894-1.0102-.197749-.5126-.165816-.4503-.556266-.8663l.0180338-.8339c2.7999862.1815 5.5934862.3168 8.3940762.4797.3272.0191.66157.0239.98965.0302.0048-1.6833.05359-3.3185.14159-4.99775.03682-.84901-.00795-1.71982.03737-2.56721.12174-2.27513.15923-4.51667.14403-6.79604z" fill="#000"/></svg>